<svg id="Layer_1" data-name="Layer 1" xmlns="http://www.w3.org/2000/svg" viewBox="0 0 580.67 575.26"><defs><style>.cls-1{fill:#fdfdfd;}.cls-2{fill:#00357f;}.cls-3{fill:#009443;}.cls-4{fill:#d11034;}.cls-5{fill:#d10e1a;}.cls-6{fill:#fbfbfb;}.cls-7{fill:#f7f7f7;}.cls-8{fill:#fecd00;}.cls-9{fill:#fafafa;}.cls-10{fill:#f5f5f5;}.cls-11{fill:#f2f2f2;}.cls-12{fill:#830a20;}.cls-13{fill:#cb0f32;}.cls-14{fill:#cb1032;}.cls-15{fill:#a00c27;}.cls-16{fill:#eee;}.cls-17{fill:#ebebeb;}.cls-18{fill:#a30d28;}.cls-19{fill:#d11134;}.cls-20{fill:#d11235;}.cls-21{fill:#d11135;}.cls-22{fill:#d10f1b;}.cls-23{fill:#d21235;}.cls-24{fill:#fecd01;}.cls-25{fill:#d21336;}.cls-26{fill:#d21236;}.cls-27{fill:#f5f4f4;}.cls-28{fill:#a40e29;}.cls-29{fill:#900c25;}.cls-30{fill:#a20e29;}.cls-31{fill:#900f27;}.cls-32{fill:#f6f5f5;}.cls-33{fill:#f6f5f6;}.cls-34{fill:#0d9a4d;}.cls-35{fill:#f3eff0;}.cls-36{fill:#f6f6f6;}.cls-37{fill:#f3f3f3;}.cls-38{fill:#e3e0e1;}.cls-39{fill:#e0dede;}.cls-40{fill:#841227;}.cls-41{fill:#e7e6e6;}.cls-42{fill:#dcd6d7;}.cls-43{fill:#e1dedf;}.cls-44{fill:#e9e5e6;}.cls-45{fill:#d3cfd0;}.cls-46{fill:#cfcacb;}.cls-47{fill:#f9f9f9;}.cls-48{fill:#fefefe;}.cls-49{fill:#fcfcfc;}.cls-50{fill:#02357e;}.cls-51{fill:#03367c;}.cls-52{fill:#e7e7e7;}.cls-53{fill:#e5e5e5;}.cls-54{fill:#dedede;}.cls-55{fill:#e8e8e8;}.cls-56{fill:#d9d9d9;}.cls-57{fill:#dfdfdf;}.cls-58{fill:#cbcbcb;}.cls-59{fill:#d3d3d3;}.cls-60{fill:#cfcfcf;}.cls-61{fill:#fdcd00;}.cls-62{fill:#e1e1e1;}.cls-63{fill:#c5c5c5;}.cls-64{fill:#cfcece;}.cls-65{fill:#c1c1c1;}.cls-66{fill:#fccc01;}.cls-67{fill:#f6c81b;}.cls-68{fill:#bbbaba;}.cls-69{fill:#c0bfc0;}.cls-70{fill:#c0a820;}.cls-71{fill:#eaeaea;}.cls-72{fill:#c20f30;}.cls-73{fill:#c00f2f;}.cls-74{fill:#b40e2d;}.cls-75{fill:#fdfafb;}.cls-76{fill:#fdf9fa;}.cls-77{fill:#fdf6f8;}.cls-78{fill:#fcf2f3;}.cls-79{fill:#fbeff1;}.cls-80{fill:#fbedef;}.cls-81{fill:#c31031;}.cls-82{fill:#bc0f2f;}.cls-83{fill:#b50f2d;}.cls-84{fill:#7a091e;}.cls-85{fill:#820a20;}.cls-86{fill:#920b24;}.cls-87{fill:#d9d2d4;}.cls-88{fill:#a20d28;}.cls-89{fill:#930b24;}.cls-90{fill:#b50e2d;}.cls-91{fill:#840a21;}.cls-92{fill:#a10c28;}</style></defs><title>iamvotingnam</title><circle class="cls-1" cx="287.63" cy="287.63" r="287.63"/><path d="M351.42,436.79c-19.28-3.26-38.32-7.38-56.1-15.88-6.79-3.25-13.25-7.05-18.3-12.79-7.55-8.59-7.28-17.85.68-26.12,7.27-7.55,16.47-11.91,26-15.72A186.49,186.49,0,0,1,331,358c.76-1.61,2.38-1.57,3.77-1.87,6.73-1.47,13.51-2.67,20.33-3.68,1.36-.05,2.62-.61,4-.71,4.92-.18,9.76-1.2,14.68-1.44,2.8.15,5.53-.54,8.31-.67,3.87,0,7.66-1,11.54-.74,1.87-.07,3.74,0,5.6,0a400.66,400.66,0,0,1,51.74,1.37,18.65,18.65,0,0,1,2.68.41c5.88.84,11.83,1.19,17.68,2.26,5.46.85,10.94,1.59,16.32,2.9,13,2.92,25.92,6.32,38.18,11.73,6.77,3.49,13.69,6.76,19.31,12.1,5.3,4.8,8.52,10.48,7.7,17.92a11,11,0,0,1-.85,3.94c-2.79,6.39-7.87,10.71-13.37,14.62-.91.65-1.82,1.41-3.08,1.23-22.68,12.2-47.38,17.3-72.59,20.63-1,.13-2,.42-3,.63-3.57,1.72-7.48,1.81-11.3,2.07C431,441.92,413.4,443,395.68,442c-13.36-.78-26.68-1.6-39.93-3.53C354.18,438.21,352.57,438.11,351.42,436.79Z" transform="translate(-125.33 -80.07)"/><path class="cls-2" d="M672,373.38c-1,60.3-24.44,119.86-71.89,169.48C561.75,583,515,608.71,460.26,617.72c-86.68,14.25-162.41-9.27-225.71-70.41-36.65-35.41-59.73-78.75-70.67-128.5a263.28,263.28,0,0,1-5.74-51.39c0-1.84.35-2.64,2.38-2.52a59.23,59.23,0,0,0,8.53,0c2.48-.2,2.9.74,2.94,3,.75,42.14,11,81.79,32.5,118.12,37.3,63.05,91.8,103.41,163.75,117.21,80.79,15.5,152.49-5.54,213.12-61.35,39.8-36.64,64.61-82.26,73.19-135.67,12.86-80-8.75-150.3-64.33-209.42-36-38.33-80.67-61.58-132.37-71.19A209.06,209.06,0,0,0,418.54,122c-3,0-3.72-.91-3.49-3.66a77,77,0,0,0,0-8.18c-.05-1.64.58-2.07,2.22-2A257.19,257.19,0,0,1,662.08,294.21C668.79,317.37,672,341.05,672,373.38Z" transform="translate(-125.33 -80.07)"/><path class="cls-2" d="M355.57,353.3c-8.2,1.53-16.48,2.7-24.58,4.73,0-.11,0-.25-.05-.33-10.34-15.05-16.68-32.17-25.13-48.2-3.45-6.55-8.67-11.63-13.29-17.21-5.8-7-9.51-14.63-10.06-24-.36-6,3.6-9.41,8.47-8.86,5.75.66,10.92-.71,16.29-2.22,6.07-1.71,11.95-1.06,17,3.21,4.17,3.51,8.83,4.86,14.4,4.67,14.42-.48,28.86-.42,43.29-.57,15-.16,30-.26,45-.51,2.36,0,4.27.41,5.5,2.5,3.7,6.28,9.25,8.43,16.32,7.71a89.29,89.29,0,0,1,9.54,0c2.05.95,4-.26,6-.36a50.48,50.48,0,0,1,12.51.92,9.22,9.22,0,0,0,3,.48c7.09-.48,14.17.73,21.25,0,3.24-.29,6.44-.85,9.65-1.32,3.44-.48,6.82-1.32,10.22-2,2.1-.29,4.12-.9,6.17-1.39,1.86-.36,3.61-1.16,5.5-1.41,1.68-.25,3.25-.95,4.9-1.34,1.84-.44,3.67-.93,5.5-1.38,2.76-.73,5.54-1.35,8.34-1.92a8.69,8.69,0,0,1,1.68-.16c2.5,0,5-.1,7.5,0a11.83,11.83,0,0,1,2.79.25c2.2.62,4.48.89,6.71,1.4.82.23,1.62.51,2.43.77a26.11,26.11,0,0,1,5.07,2.25c1.61,1.25,2.77,2.72,2.4,4.93a5.05,5.05,0,0,1-1.65,2.63,5.32,5.32,0,0,1-2.75,1.37c-1.69,0-3.36-.26-5.05-.16a11.5,11.5,0,0,0-3,.41,10.82,10.82,0,0,1-3.5.14c-2.06-.72-3.87,0-5.6,1a55.4,55.4,0,0,0-5.29,3.41c-.6.46-1.16,1-1.77,1.42-1.69,1.1-3.06,2.63-4.83,3.62s-2.9.38-3.7-1.42c-1-2.27-2.78-4.11-3.87-6.35a2.23,2.23,0,0,0-2-1.53,9.89,9.89,0,0,0-3.29.42q-1,.19-2,.33a14.65,14.65,0,0,1-3.08.56,37.2,37.2,0,0,0-6.88,1.17c-4.45.82-9,1.23-13.41,2-3.35.49-6.72.82-10.07,1.32a35.54,35.54,0,0,1-5.68.91c-2.7,0-4,1.21-3.73,3.95.22,11.34.07,22.68.1,34a13.93,13.93,0,0,1-.57,5.37,7.08,7.08,0,0,1-2.9,2.76q-13.85,9.21-27.67,18.46a17,17,0,0,1-3.95,1.93,274.07,274.07,0,0,0-32.14-1.92c-7.56,0-15.11,0-22.67,0-2.24-3.89-2-8.31-2.54-12.54-.23-2,1.33-2.37,3-2.15,3.84.5,7.6,1.44,11.42,2a5.4,5.4,0,0,0,2.58.13c-2-3.37-4.75-5.92-6.95-8.88-.61-.82-1.29-1.58-1.89-2.42-1.31-1.81-1-3,1.14-3.92,4.52-1.86,9-3.8,13.92-5.74-4.6-1.78-8.93-3.33-13.22-5-3.22-1.24-3.39-1.84-1.33-4.6,2.65-3.54,5.8-6.69,8.54-10.92-5.71,0-10.71,2.18-15.94,2.11-1.78-.83-1.46-2.37-1.26-3.83.63-4.39,1.23-8.78,2-13.62-3.73,2.3-6.57,5.14-9.65,7.64-3.58,2.9-4.68,2.7-6.43-1.47s-3.21-8.19-4.72-12.32c-2.58,5.09-3.26,10.92-6.42,15.74-1.87.72-3-.71-4.15-1.63-3.45-2.73-6.76-5.64-10.5-8.66.58,4.16,1.33,8,2,11.83.33,1.95,1.23,3.92.2,5.93a3.11,3.11,0,0,1-2.58.55c-4.38-.67-8.78-1.18-13.14-1.94a3.15,3.15,0,0,1-2.19-1.09c3,3.7,5.83,7.86,8.79,11.89.93,1.26,2.13,2.54.72,4.22-3.59,2.26-7.89,2.75-11.65,4.59-.68.33-1.6.23-2.08,1.22,4,1.92,8.22,3.22,12.17,5.13,3.15,1.52,3.32,2,1.26,4.72-2.61,3.42-5.49,6.62-8.08,10,.73,1,1.45-.14,2.17,0,3.59-.56,7.18-1.06,10.79-1.41s4.56.59,4,4.21-1.32,7.36-2,11A3.7,3.7,0,0,1,355.57,353.3Z" transform="translate(-125.33 -80.07)"/><path class="cls-3" d="M702.6,371.1c-2,71.94-27.09,134.77-75.52,187.92-41.56,45.61-92.76,75.58-153.33,87.35C377.92,665,292.76,641.6,220.23,576c-46.88-42.37-75.6-95.56-87.74-157.61a298.22,298.22,0,0,1-5.07-50.79c-.06-2.35.74-3,2.87-2.7,1.84.25,4.15-1.08,4.2,2.78.55,40.75,9.1,79.75,26.71,116.56q40.65,85,124,129.28a265.84,265.84,0,0,0,98.3,30.23c77.43,8,147.08-11.93,207.82-60.74,48.54-39,80.35-89.19,96-149.54A273.69,273.69,0,0,0,695.56,375c0-1.25.18-2.49.27-3.74A12.27,12.27,0,0,1,702.6,371.1Z" transform="translate(-125.33 -80.07)"/><path class="cls-4" d="M249.7,479.12a83.79,83.79,0,0,1-9.61,8c-5.07-6.32-9-13.37-12.87-20.43a207.31,207.31,0,0,1-24.74-80.61c-3.44-36.52,1.77-71.83,16.37-105.62a213.73,213.73,0,0,1,50-71.22A208.43,208.43,0,0,1,309.9,179c1.43-.8,2.81-2.12,4.7-1.12a42.93,42.93,0,0,1,5.9,8.93c-4.65,2.58-9.39,5-13.91,7.81-19.09,12-35.32,27.07-49.36,44.56a200,200,0,0,0-37.72,76.08,208.76,208.76,0,0,0-5.14,29.83,197.29,197.29,0,0,0-.54,32.69,194.52,194.52,0,0,0,11,54.21,209.38,209.38,0,0,0,17.54,37.26,29.07,29.07,0,0,0,6.19,7.64C249.2,477.48,250.15,478,249.7,479.12Z" transform="translate(-125.33 -80.07)"/><path class="cls-4" d="M351.42,436.79a406.92,406.92,0,0,0,72.23,4.29,324.29,324.29,0,0,0,33.23-2.34,28.13,28.13,0,0,1,3.05-.06c-10.13,6.88-20.25,13.79-30.41,20.62C411.8,471.21,394,483,376.36,495c-2.18,1.47-3.26,1.27-4.86-.75a79.11,79.11,0,0,1-13.3-24.76c-1.13-3.44-3.26-6.75-3.57-10.24-.58-6.71-2.45-13.14-3.35-19.76A13.83,13.83,0,0,1,351.42,436.79Z" transform="translate(-125.33 -80.07)"/><path class="cls-5" d="M314.6,177.92c-7.33,2.89-13.73,7.44-20.16,11.83a200.26,200.26,0,0,0-32.35,27.33,221.1,221.1,0,0,0-32,42.89,208.55,208.55,0,0,0-23.66,63.74,244.5,244.5,0,0,0-3.34,24.46,228.58,228.58,0,0,0-.47,25.5,190.59,190.59,0,0,0,4.87,37.88,208.91,208.91,0,0,0,20.27,54.28,172.84,172.84,0,0,0,11.33,18.53,4.34,4.34,0,0,1,1,2.79c-6,5.8-6,5.79-10.39-1-25.84-39.79-38-83.47-35.81-130.77,2.57-56.38,23.89-105,63.19-145.56a220.75,220.75,0,0,1,49.53-38.07c2.41-1.38,3.73-1.26,5,1.25A56.72,56.72,0,0,0,314.6,177.92Z" transform="translate(-125.33 -80.07)"/><path class="cls-4" d="M503,183.47q2.57-5.24,5.15-10.45c4.14.76,7.38,3.42,10.93,5.37a203.06,203.06,0,0,1,50.56,39C601.39,251.15,620.76,291,627,337.09a217.35,217.35,0,0,1,1,45.19,205.84,205.84,0,0,1-21.71,78c-.65,1.3-1.12,2.76-2.48,3.58-3.5-.36-6.69-2.08-10.24-2.22-.83-1.41.31-2.35.88-3.37,9-16,14.63-33.23,18.56-51a202.06,202.06,0,0,0-47.85-178,193.85,193.85,0,0,0-48.89-39.38c-3.57-2-7.09-4.07-11.2-4.82C504.13,184.81,503.22,184.55,503,183.47Z" transform="translate(-125.33 -80.07)"/><path class="cls-5" d="M603.76,463.82c3.15-7,6.59-13.94,9.4-21.11a220,220,0,0,0,11.93-43.45,213,213,0,0,0,2.38-47.42,201.91,201.91,0,0,0-11.66-57.62,217.88,217.88,0,0,0-21.9-44.46A207.26,207.26,0,0,0,559.79,209a210.28,210.28,0,0,0-43.24-31c-2.87-1.54-5.92-2.83-8.44-5,3.06-7.85,3.12-8,10.37-4C580.54,203.3,619.28,255,632.77,324.61c9.29,47.91,2.47,94.17-18.82,138.21-1.38,2.85-2.82,3.67-5.66,2.43A43.35,43.35,0,0,0,603.76,463.82Z" transform="translate(-125.33 -80.07)"/><path class="cls-3" d="M465.23,449.07c0,3.78,0,6.91,0,10,0,13.06-.12,26.12-.06,39.19,0,2.13-.47,3.3-2.69,3.81-5.6,1.28-10.28,3.8-13.29,9.11-1.78,3.13-4.5,3.47-8.26,1.2a7.61,7.61,0,0,0-8-.41,10.62,10.62,0,0,1-6.64.62c-5.42-.85-10.49-2.85-15.65-4.55a6.37,6.37,0,0,1-4.72-7,5.86,5.86,0,0,0-2.36-5.67c-2.58-1.85-1.35-2.72.52-4q21.6-14.85,43.11-29.81Z" transform="translate(-125.33 -80.07)"/><path class="cls-6" d="M476.78,275.57l-18.5-1.34c4.1-.2,4.1-.2,2.38-3.71-11.53-23.53-23.18-47-34.54-70.64q-5.17-10.73-10.48-21.39a8.92,8.92,0,0,1-.9-4.6,4.31,4.31,0,0,1,5.49,0c4.39,2.38,2.77-2.09,3.91-3.42.82,2.75,3.39,3.12,5.54,4.07,2.19.32,4.72,2.16,6.07-1.34a7,7,0,0,1,2.41,2.23c-.66,2.33-.06,4.38,1,6.52q17.33,35.72,34.95,71.29c3,6.1,5.92,12.28,8.91,18.4,1.87,3.84,1.6,4.27-2.54,4.23C479.23,275.85,478,276.2,476.78,275.57Z" transform="translate(-125.33 -80.07)"/><path class="cls-7" d="M476.78,275.57c7.18-.11,7.15-.09,4-6.53q-11-22.29-22-44.62c-7.13-14.59-14.14-29.23-21.28-43.81-.95-1.94-1.32-3.6.43-5.2,3.54-1.67,6.91-.89,10.24.67-.37.8-.23,1.23.76,1.23a14.41,14.41,0,0,1,6.06,1.35,18.05,18.05,0,0,0,2.1,6.41c10.31,20.09,19.91,40.52,29.95,60.74,4.64,9.34,9,18.8,13.93,28a2.57,2.57,0,0,1,.4,2.26C493.16,276.79,485,276.1,476.78,275.57Z" transform="translate(-125.33 -80.07)"/><path class="cls-8" d="M145.93,360c1-62,24.41-122.75,71.79-173.77,38.74-41.72,86.37-68.08,142.12-79.64a249.41,249.41,0,0,1,49.06-5.13,10.43,10.43,0,0,1,1.37,0c.71.1,1.87-.38,1.92.77.07,1.38-1.21,1-2,1.07-6.24.24-12.48.33-18.72.84Q311.77,110.65,249,160.05c-41.07,32.32-70,73.43-87.09,122.82a254.08,254.08,0,0,0-13.43,68.65c-3.28,57.51,10.14,110.83,41.61,159,41,62.82,98.73,101.71,172.27,116.91,15.61,3.23,31.48,4.37,47.39,4.89.88,0,2.46-.64,2.48.86s-1.55,1-2.46,1c-67-1.45-125.78-23.94-175.61-68.79C191.34,526.89,164,479.23,151.78,423,147.81,404.68,146,386.17,145.93,360Z" transform="translate(-125.33 -80.07)"/><path class="cls-9" d="M535.5,417.42c3.18-2.47,6.64-4.57,9.56-7.39a35.07,35.07,0,0,0,6-8.29c2.38-.27,2.65,1.83,3.29,3.2,4.74,10.29,9.82,20.41,15,30.49,3.56,7,6.56,14.19,10.19,21.11a6.89,6.89,0,0,1,1,3.54,4.63,4.63,0,0,1-.14,1c-1.4,2.1.92,2.08,1.69,2.95-.07,1.11.29,2.49-1.59,2.38-2.15-1.08-3.57-.27-4.81,1.62-2.53,3.88-5.18,7.67-7.81,11.48-1.36,2-2.39,2.33-3.66-.3q-14.19-29.34-28.58-58.6C535.15,419.51,534.79,418.52,535.5,417.42Z" transform="translate(-125.33 -80.07)"/><path class="cls-10" d="M501.38,276.09c-10.95-20-20.33-40.85-30.4-61.32-5.12-10.4-10.36-20.74-15.51-31.12-.79-1.58-2-3.17-.47-5,3.56,1.21,7.42,1.24,10.92,2.73,2,1.61,2.27,4.13,3.34,6.22,9.05,17.54,17.31,35.46,26.25,53,5.08,10,9.57,20.31,14.74,30.27.59,1.14,1.63,2.3.7,3.77Z" transform="translate(-125.33 -80.07)"/><path class="cls-11" d="M511,274.69c-.28-.74-.5-1.5-.85-2.21-8.06-16.36-16.18-32.7-24.2-49.09-6.57-13.43-13-26.92-19.5-40.39a10.7,10.7,0,0,1-.48-1.61,62.79,62.79,0,0,1,15,4.77,6.67,6.67,0,0,0,.83,3.93c2.77,5.58,5.27,11.29,8.1,16.84,9.38,18.37,18.07,37.08,27.34,55.51,1.63,3.25,3.8,6.42,4,10.29A64.46,64.46,0,0,1,511,274.69Z" transform="translate(-125.33 -80.07)"/><path class="cls-12" d="M323.31,197.57a194.64,194.64,0,0,0-43.83,33.24c-30.6,31.39-48.87,68.77-53.81,112.4-5,44.45,4.52,85.7,28.11,123.71.29.48.5,1,.75,1.5-.66,2.3-1.94,1-2.9.4-2.63-1.77-4.14-4.53-5.62-7.19a200.65,200.65,0,0,1-20.88-54.19c-4.34-19.47-5.21-39.11-3.88-58.95,1.53-22.86,7.58-44.54,17.05-65.26a190.63,190.63,0,0,1,32.19-48.73,199.46,199.46,0,0,1,43.07-35.88c2.13-1.33,4.31-2.63,6.84-2.9C321.62,195.59,323.61,195,323.31,197.57Z" transform="translate(-125.33 -80.07)"/><path class="cls-13" d="M249.7,479.12c-6.39-4.64-9.55-11.65-13.15-18.27a194.24,194.24,0,0,1-17.91-46.13A227.4,227.4,0,0,1,214,388.43c-1.2-9.51-1.11-19-1.18-28.49-.1-13.74,1.89-27.25,4.88-40.61a199,199,0,0,1,20-52.56,196.09,196.09,0,0,1,25.22-35.66A199,199,0,0,1,302.85,196c4-2.61,8.1-5,12.2-7.39a11.49,11.49,0,0,1,5.45-1.77l.78.6c.67.43,1.13.92.54,1.74-20.35,8.7-37,22.64-51.87,38.5-28.38,30.21-46.17,65.91-52.19,107.06-4.85,33.26-2.12,65.9,9.38,97.69a217.06,217.06,0,0,0,15.58,33.3c2.45,4.32,5,8.66,9.86,10.83.21,1.43-.78,1.86-1.85,2.23Z" transform="translate(-125.33 -80.07)"/><path class="cls-14" d="M503,183.47c14.41,3.77,25.73,12.9,37.36,21.49a175.4,175.4,0,0,1,23.08,21.09,203.17,203.17,0,0,1,41.46,66.07,220.42,220.42,0,0,1,10.67,39.53,202.11,202.11,0,0,1,2.38,45.72,186.76,186.76,0,0,1-9,48.48A209.76,209.76,0,0,1,597,455.43c-1.06,2.11-2.33,4.12-3.51,6.17l-1.37-.41a.56.56,0,0,1-.9-.14c-.45-1.25.31-2.18.87-3.15,8.79-15.08,14.13-31.45,18.22-48.29,4.45-18.26,5.49-36.83,4.72-55.5a186.26,186.26,0,0,0-8.35-47.52,196.28,196.28,0,0,0-21.89-47.91,199.9,199.9,0,0,0-35.37-42.15,233.93,233.93,0,0,0-35.24-25.59,37.11,37.11,0,0,0-12.69-4.52c-.69-1.07.09-1.63.78-2.23Z" transform="translate(-125.33 -80.07)"/><path class="cls-15" d="M323.31,197.57c-1.34-2.28-3.14-1.17-4.71-.49-7,3-13.13,7.58-19.17,12.12A182.82,182.82,0,0,0,276,229.79a215.17,215.17,0,0,0-23.74,30,195.65,195.65,0,0,0-20.57,42.31,187.14,187.14,0,0,0-8.5,36.49,209.44,209.44,0,0,0-1.4,37.6A171.91,171.91,0,0,0,230,422.05c1.81,5.59,3.71,11.13,5.9,16.57a150.4,150.4,0,0,0,13.71,26.83c1,1.55,2,4.11,4.94,3a3.65,3.65,0,0,1,1.34,2c.07,2.11-1.28,2.09-2.72,1.72a9.65,9.65,0,0,1-5.7-4.57,143.82,143.82,0,0,1-12.53-23.77,219.34,219.34,0,0,1-11.07-32.87,209.72,209.72,0,0,1-4.44-27.16,188.71,188.71,0,0,1,.84-45.5,198.24,198.24,0,0,1,14.54-51.93c8.64-19.77,20.45-37.34,34.64-53.46,13-14.78,28.32-26.75,45-37,2.44-1.5,5.09-2.65,8.05-2.23,1.41.2,3.4.2,2.86,2.67Z" transform="translate(-125.33 -80.07)"/><path class="cls-16" d="M521.17,272.73q-18.37-37.4-36.75-74.8c-1.44-3-2.78-6-4.12-9-.45-1-1.63-2.34.63-2.82a23.32,23.32,0,0,1,6.82,2.73c3.43,5.76,6.26,11.84,9.16,17.87,9.64,20.05,19.54,40,29.32,59.95.7,1.43,2.16,2.79,1.1,4.68A22,22,0,0,1,521.17,272.73Z" transform="translate(-125.33 -80.07)"/><path class="cls-4" d="M420.23,173.89c-1.83.6-3.66-.06-5.49,0-.95-5.47-1.9-10.94-3-17-2.41,4.95-3.6,9.73-5.15,14.37-.62,1.83-1.07,3.06-3.51,3.16s-2.95-1.29-3.63-3a90.41,90.41,0,0,0-6.13-13c-.52,4.67-1.09,9.34-1.52,14-.17,1.85-.7,2.72-2.81,2.9-2.46.2-3.14-.39-2.87-2.86.85-7.67,1.48-15.36,2.26-23,.15-1.47-.08-3.4,2.37-3.32,2,.07,4.09-.91,5.19,2.19,1.92,5.42,4.4,10.65,6.86,16.48,2-5.68,3.8-10.93,5.65-16.17,1.07-3,3-4,6.17-3.2,1.59.4,1.32,1.66,1.48,2.7C417.52,156.64,418.87,165.27,420.23,173.89Z" transform="translate(-125.33 -80.07)"/><path class="cls-17" d="M527.33,271.39c-.32-.84-.57-1.72-1-2.52q-13.73-27.81-27.45-55.61c-3.51-7.13-6.93-14.3-10.41-21.45a5.45,5.45,0,0,1-.76-2.92l4.1,1.37c1.34,1,3.21-.48,4.48.93a33.29,33.29,0,0,0,3.4,8.85c10.2,19.93,19.57,40.27,29.78,60.2,1.19,2.32,2,4.81,3.18,7.16.39.79.83,1.67.09,2.54Z" transform="translate(-125.33 -80.07)"/><path class="cls-4" d="M329.94,168c1.67,5.61,2.91,10.44,4.59,15.11.93,2.61-.57,2.7-2.24,3.35-1.88.75-2.81.49-3.44-1.58-2.21-7.14-4.64-14.22-6.83-21.37-.37-1.2-2-2.94-.1-3.82s3.92-2.45,6.28-.5c5.06,4.18,10.23,8.22,15.92,12.77-1.23-5-2.2-9.54-3.52-14-.79-2.68-.54-4.06,2.59-4.52,2.09-.31,2.94-.19,3.42,2.14,1.51,7.33,3.35,14.59,5,21.89.26,1.18,1.58,3-.16,3.59s-3.78,1.9-5.94-.17A152.93,152.93,0,0,0,329.94,168Z" transform="translate(-125.33 -80.07)"/><path class="cls-18" d="M325.35,196.28c-1.48-2.87-4-2.17-6.19-1.5-5.4,1.64-9.72,5.29-14.36,8.3a185.77,185.77,0,0,0-21.1,16.46,166.38,166.38,0,0,0-16.43,17,199.46,199.46,0,0,0-17.43,23.34,194.89,194.89,0,0,0-20.22,42.37,214.5,214.5,0,0,0-8.54,35.86,187.47,187.47,0,0,0-1.32,40.38,174.51,174.51,0,0,0,7.44,41.55c4.51,14.11,9.6,28,17.2,40.84,1.84,3.1,3.29,6.56,6.14,8.89,1.44,1.18,3.25,3.24,5.33.62.82.25.32,1.51,1.27,1.65a.71.71,0,0,1-.06,1c-3.16,1.64-5.4,1.28-8.17-1.53-3.55-3.61-5.77-8.16-8.14-12.53a202,202,0,0,1-21.9-67,199.16,199.16,0,0,1,13.21-102.89,200,200,0,0,1,76.8-91.42c2.1-1.36,4.28-2.58,6.44-3.83a10.81,10.81,0,0,1,10.12-.85c1,.65,1.73,1.42,1.33,2.74C326.36,196.08,326,196.46,325.35,196.28Z" transform="translate(-125.33 -80.07)"/><path class="cls-4" d="M448.18,176.08l-10.24-.67c-1.45,0-2.43-.51-2.19-2.21.73-8,1.54-16,2.14-24,.15-2,.65-2.91,2.79-2.51,2.78.52,5.67.63,8.37,1.41,6.17,1.79,7.7,7.14,3.44,11.93-.93,1.05-.56,1.31.09,2.09C457.4,167.81,455.57,173.58,448.18,176.08Z" transform="translate(-125.33 -80.07)"/><path class="cls-4" d="M467.51,180.12c5.62-8.71,11.31-16.47,17.14-24.15a2.29,2.29,0,0,1,3.21-.84c1.48.73,3.88,0,4.25,2.54,1.3,9.22,2.17,18.49,2.81,27.78.06.93-.21,1.68-1.33,1.33-2.26-.72-5.13-.82-4.53-4.54.37-2.28-.7-3.6-3.09-3.94a16.48,16.48,0,0,1-4.26-1.15c-3.18-1.38-5.4-.92-7.17,2.39C472.87,182.68,470.36,179.81,467.51,180.12Z" transform="translate(-125.33 -80.07)"/><path class="cls-4" d="M356.45,180.13c1.45-10.24,3.58-19.83,5.87-29.37.58-2.43,3.08-1.27,4.62-1.94a2.09,2.09,0,0,1,2.82,1.09q7.15,11.76,13.58,23.91c.79,1.5.31,1.86-1.25,2.07-2.59.37-4.67.15-5.53-2.79-.6-2-2.05-2.44-4-2a23,23,0,0,1-3.69.57c-3.47.24-6.17.9-6.45,5.39C362.24,180.52,358.75,178.88,356.45,180.13Z" transform="translate(-125.33 -80.07)"/><path class="cls-19" d="M274.15,521.16a51.75,51.75,0,0,0,9.44-7.61c1.87-1.92,2.86-.67,4.17.44,2,1.7-.17,2.36-.9,3a134.88,134.88,0,0,1-14,11.36c-1,.69-1.87,1.78-3.19.39-1.11-1.18-2.68-1.83-1.85-4.14,1.49-4.12,2.55-8.4,4.06-13.55-3.72,2.54-6.84,4.41-9.65,6.67-2.17,1.74-3.31.75-4.59-.92-1.79-2.31.79-2.39,1.68-3,4.78-3.06,9.38-6.35,13.85-9.85.78-.61,1.49-2.13,2.78-.87,1,1,2.55,1.69,1.87,3.88C276.43,511.56,275.42,516.2,274.15,521.16Z" transform="translate(-125.33 -80.07)"/><path class="cls-19" d="M397.61,582.75c-8.85-.32-8.83-.31-7.61-8.45.68-4.48,1.32-9,1.87-13.46.21-1.66.75-2.47,2.56-2.05,2,.47,4.06.57,6,1.21,4.38,1.47,5.62,5.35,3.08,9.15-.39.58-1.49,1-.39,1.85,2.92,2.32,3.57,5.21,1.81,8.43S400.17,583,397.61,582.75Z" transform="translate(-125.33 -80.07)"/><path class="cls-4" d="M445.58,582.92c-7.85,2.58-7.83-5-11.63-8.07a61.33,61.33,0,0,0,.05,6.66c.27,2.36-1,2.5-2.77,2.6s-2.29-.49-2.32-2.27c-.07-6.25-.28-12.49-.55-18.72-.09-1.9.43-2.64,2.42-2.49,2.25.17,4.5-.38,6.79,0a5.9,5.9,0,0,1,5.12,4.36c.79,2.66.68,5.39-1.78,7.1-1.72,1.19-1.57,1.95-.48,3.39C442.2,577.8,443.77,580.28,445.58,582.92Z" transform="translate(-125.33 -80.07)"/><path class="cls-19" d="M516.47,532c2.47-2.85,4.53-2.76,7.11-.21,2.81,2.78,6.13,5,9.24,7.5a4.85,4.85,0,0,0,5.08,1c2.81-1.12,3.17-3.16.81-5.07-3.45-2.77-7-5.41-10.44-8.2-.63-.51-2.4-1.06-1.15-2.17,1-.88,2.1-2.94,3.91-1.59,4.46,3.31,8.89,6.68,13.14,10.25,2.42,2,2.32,5.16.2,7.55-3.27,3.68-9.49,4.9-13.7,2.38C525.4,540.24,520.94,536,516.47,532Z" transform="translate(-125.33 -80.07)"/><path class="cls-20" d="M417.08,584.1c-7.49,0-7.46,0-6.95-7.41.31-4.52.62-9.05.77-13.58.07-2,.44-2.85,2.74-2.54a55.48,55.48,0,0,0,8.16.19c1.58,0,2.5.18,2.44,2.16-.05,1.79-.59,2.46-2.36,2.34-1.46-.09-2.95,0-4.42,0s-1.95.61-2.06,2c-.14,1.61.71,1.93,2,2s2.73.11,4.08.07c1.63,0,2.76,0,2.79,2.26s-1.11,2.33-2.73,2.23a20.75,20.75,0,0,1-3.06,0c-2.58-.54-3.18.58-3.39,3-.25,2.76,1.27,3,3.21,3,1.13,0,2.27.08,3.4,0,1.52-.07,2.57,0,2.55,2.1,0,1.86-.69,2.37-2.4,2.26S418.67,584.1,417.08,584.1Z" transform="translate(-125.33 -80.07)"/><path class="cls-21" d="M254.47,509.19a8.68,8.68,0,0,1-7.32-4.31c-2.15-3.33-1.68-6.67,1.57-8.93,4.1-2.84,8.42-5.35,12.57-8.1,1.64-1.09,1.86.44,2.52,1.13.91.94,1.2,1.82-.21,2.71-3.45,2.18-6.85,4.45-10.27,6.67-1.65,1.06-3.59,2.1-2.16,4.49s3.35,2.54,5.53,1.09c3.49-2.33,7-4.6,10.39-7.1,1.6-1.19,2.36-.8,3.57.51,1.54,1.66.35,2.34-.77,3.12-3.42,2.42-6.86,4.82-10.33,7.17A8.06,8.06,0,0,1,254.47,509.19Z" transform="translate(-125.33 -80.07)"/><path class="cls-21" d="M577.58,500.85c-6.14,0-11-3.83-11.34-9-.44-5.81,4.49-12.08,10.2-13.17,1-.2,1.6-.11,1.75.84s1.12,2.19-.46,2.93a27.22,27.22,0,0,0-3.34,1.64c-3.24,2.16-4.47,5.89-3,8.83,1.54,3.13,5.81,4.66,9.41,3.37,3.82-1.37,6.14-4.46,5.66-8.61-.3-2.59,1.55-2,2.65-2.48,1.77-.71,1.7.8,1.88,1.87C592.16,494,585.55,500.86,577.58,500.85Z" transform="translate(-125.33 -80.07)"/><path class="cls-4" d="M502.75,545.79,510.14,556c-5,3.33-10.79,5.15-16.27,7.53l-6.93-8.89a1.34,1.34,0,0,1-.11-1,2.15,2.15,0,0,1,1.27-1.48c5-1.34,9.32-4.23,13.76-6.79A1.33,1.33,0,0,1,502.75,545.79Z" transform="translate(-125.33 -80.07)"/><path class="cls-4" d="M328.46,559.28,334.87,549c.35-.71.53-1.61,1.65-1.45A37.73,37.73,0,0,0,349.08,553c.69.74.11,1.2-.36,1.69l-4.86,11c-3.7.46-6.55-1.9-9.76-3C332.07,561.87,329.64,561.56,328.46,559.28Z" transform="translate(-125.33 -80.07)"/><path class="cls-21" d="M548.09,532c0-2.73.91-4.24,4-3.94,1.67.16,3.41-.76,3.32-2.65-.12-2.17-2.17-1.57-3.52-1.5-2.94.17-5.87.69-8.81.79-4.21.15-6.73-1.55-7-4.39-.29-3.06,2.21-5.84,6.09-6.6a9.86,9.86,0,0,1,3.7-.17c.91.18.52,1.35.55,2.1s-.2,1.55-1.28,1.61a9.77,9.77,0,0,0-2,.36c-1,.27-2.14.66-2,1.91.14,1.51,1.5,1.15,2.42,1.09,3.29-.23,6.55-.7,9.84-.82,4-.13,6.78,1.59,7.35,4.17s-1.48,5.78-4.92,7.39A12.67,12.67,0,0,1,548.09,532Z" transform="translate(-125.33 -80.07)"/><path class="cls-21" d="M301.66,551.6c.18-.34.21-.47.29-.53,6.14-4.41,8.92-10.52,9.32-17.94,0-.71-.3-2.87,1.52-2.08,1.41.61,3.92.66,3.52,3.33-.31,2.12-.72,4.21-1.14,6.63a18.33,18.33,0,0,0,7.27-2.86c2.89-1.74,4.84-.08,7.69,1.14-4,1.86-7.4,3.68-11,5a24.4,24.4,0,0,0-9.43,6.36C306.22,554.45,306.12,554.36,301.66,551.6Z" transform="translate(-125.33 -80.07)"/><path class="cls-21" d="M580.54,466.39c.5-.82,1-1.64,1.48-2.46,1.86-.93,3,.12,3.9,1.51-.86,1.6-1.68,3.21-2.57,4.79-.59,1-1.21,1.86.45,2.66,1.36.66,2,.44,2.64-.84.48-1,1.25-1.94,1.62-3,.71-2,1.87-1.64,3.38-1,2,.88.76,1.87.25,2.87-.31.61-.69,1.18-.94,1.81-.5,1.23-2.5,2.49.29,3.65,1.93.81,3.48,1.61,4.43-1.11a33.3,33.3,0,0,1,1.57-3c1-2,2.21-.69,3.38-.31,1.8.58.65,1.62.31,2.39-4.11,9.36-4.47,9.5-13.65,5-3-1.44-5.78-3.14-8.75-4.54-1.75-.83-1.66-1.64-.72-3.07C578.73,470,579.58,468.18,580.54,466.39Z" transform="translate(-125.33 -80.07)"/><path class="cls-20" d="M469.48,563.68c2.56-3.29.45-9.7,7.53-9.45-.56,2.4-.8,4.79-1.7,6.92a21,21,0,0,0-.2,15.49c.68,2-.63,2.12-1.82,2.26s-3.15,1.41-3.17-.92c-.09-7.91-5.6-12.77-9.86-18.36-.34-.44-.65-.91-1.17-1.65,2.25-.49,4.19-2.1,6.09.49C466.49,560.26,468,561.91,469.48,563.68Z" transform="translate(-125.33 -80.07)"/><path class="cls-21" d="M462.26,178.69c-2.92.21-4-.82-3.25-4.16,1.6-7.42,2.88-14.91,4-22.41.38-2.49,1.56-2.3,3.24-1.86s3.66.11,3,3.11c-1.73,7.85-3.18,15.77-4.73,23.66C464.29,178.22,464.1,179.38,462.26,178.69Z" transform="translate(-125.33 -80.07)"/><path class="cls-19" d="M429.68,174.54c-.45,0-.9,0-1.34,0-3.1.38-4.91-.58-4.2-4.1.31-7.12.8-14.23.87-21.35,0-3,1.22-3.43,3.84-3.38s2.62,1.31,2.46,3.4C430.65,157.6,430.2,166.07,429.68,174.54Z" transform="translate(-125.33 -80.07)"/><path class="cls-21" d="M288.66,543.7c-1-.75-2.53-1.42-3.22-2.58-.6-1,1.09-1.44,1.79-2.07C290.57,536,294,533,297.38,530c1.31-1.15,2-2.13-.07-3.21-.89-.45-2-1.12-.61-2.23,1-.81,1.54-2.7,3.54-1.3,2.69,1.88,5.57,3.5,8.3,5.33.66.44,2.5.53,1.31,2-.8,1-1.6,3.3-3.29,2-2.87-2.27-4.26-.43-6.08,1.34-3.1,3-6.35,5.84-9.57,8.71A2.79,2.79,0,0,1,288.66,543.7Z" transform="translate(-125.33 -80.07)"/><path class="cls-22" d="M493.87,563.54c1.48-2.3,4.14-2.56,6.36-3.47,3.3-1.36,6.32-3.43,9.91-4.06l5.3,6.63c-5.32,2.42-10.35,4.68-15.37,7a1.78,1.78,0,0,1-2.55-.78C496.34,567,495.09,565.3,493.87,563.54Z" transform="translate(-125.33 -80.07)"/><path class="cls-23" d="M444.85,561.53c-.36-1.57.39-2,1.79-2.12a88.64,88.64,0,0,0,9.07-1.23c2.11-.44,2.18.82,2.49,2.17s.05,2.52-1.72,2.43c-2.56-.12-2.25,1.48-2,3.14.68,4.58,1.16,9.21,2,13.76.52,2.68-1.33,2.17-2.69,2.6-1.95.63-2.27-.41-2.45-2-.53-4.72-1.24-9.42-1.71-14.15-.17-1.71-.63-2.53-2.47-2.08C444.91,564.6,444.83,563.05,444.85,561.53Z" transform="translate(-125.33 -80.07)"/><path class="cls-22" d="M328.46,559.28l15.4,6.32c-2.39,8.46-2.4,8.49-10.4,5.35-3.33-1.32-6.59-2.8-10.16-4.32Z" transform="translate(-125.33 -80.07)"/><path class="cls-21" d="M507.44,537.37c2.7-2.87,4.71-2.74,7.28-.18,3.43,3.43,7.44,6.28,11.09,9.51,3.28,2.91,2.89,5.68-1,7.73a13,13,0,0,1-6.57,1.44c-.93,0-2.32.26-2.07-1.4.18-1.19-.2-2.94,2.06-2.69,1.24.13,2.93.11,3.36-1,.61-1.56-1.26-2.17-2.21-3C515.51,544.3,511.55,540.92,507.44,537.37Z" transform="translate(-125.33 -80.07)"/><path class="cls-23" d="M373.44,555.78c-1.24,5.29-2.06,9.89-3.44,14.32-1,3.1.21,3.95,2.92,4.38,1.2.19,3.23-.34,3,2.18-.2,1.9-.69,3-2.95,2.35-3-.89-7.25-.69-8.86-2.66-1.75-2.16.89-5.88,1.53-8.93.85-4,2-7.91,3-11.88.37-1.54,1.16-1.66,2.46-1.1C372.06,554.88,373.86,554.4,373.44,555.78Z" transform="translate(-125.33 -80.07)"/><path class="cls-24" d="M702.6,371.1a9.16,9.16,0,0,1-6.77.11c-3.34-2.9-4.42-5.76-3.09-8.87a6.85,6.85,0,0,1,12.69.14C706.9,366.11,705.36,368.82,702.6,371.1Z" transform="translate(-125.33 -80.07)"/><path class="cls-21" d="M570.8,516.14c-2.54,3.84-2.58,3.89-6.45,1.53-3.58-2.18-7.07-4.51-10.6-6.75-.7-.44-1.46-1.49-2.3-.43-2.22,2.81-3.92,1.4-5.47-.36,2.44-2.56,5-5,7.25-7.66,1.59-1.84,2.66-.72,4,.21,1.84,1.31.06,1.93-.55,2.53-1.41,1.38-.28,1.88.69,2.49Q564.05,511.93,570.8,516.14Z" transform="translate(-125.33 -80.07)"/><path class="cls-25" d="M381.89,580.6c-2.24-.05-3.64-.35-2.93-3.32,1.4-5.93,2.47-11.95,3.42-18,.38-2.47,1.72-2,3.32-1.86,2,.2,1.59,1.31,1.35,2.65C386,566.21,385,572.35,384,578.48,383.78,579.73,383.79,581.19,381.89,580.6Z" transform="translate(-125.33 -80.07)"/><path class="cls-23" d="M296.61,520.94a140.22,140.22,0,0,1-16.44,14.56c-2.33,1.8-3.38-.6-4.41-1.62-1.33-1.31.72-1.75,1.41-2.28a165,165,0,0,0,12.75-10.72C292.93,518,292.93,518,296.61,520.94Z" transform="translate(-125.33 -80.07)"/><path class="cls-26" d="M559.42,496c.72.45,1.2.72,1.66,1a165.08,165.08,0,0,0,15.73,9.37c.71.38,2.47.62,1.14,2-.85.89-1.15,3.11-3.25,2A152.59,152.59,0,0,1,557.6,500c-.43-.31-1.13-.62-.63-1.27C557.71,497.78,558.59,496.9,559.42,496Z" transform="translate(-125.33 -80.07)"/><path class="cls-27" d="M486.89,554a1.78,1.78,0,0,1,.05.61c-1.89-.91-4-.62-5.95-1-3.78-.67-5.44-4.19-8.8-5.94a7.48,7.48,0,0,1,4-2c2.2,2.58,5.14,3.88,8.29,4.82A4.69,4.69,0,0,1,486.89,554Z" transform="translate(-125.33 -80.07)"/><path class="cls-28" d="M495.89,538.09l.69-.41c1.45.42,1.78,1.6,2,2.87-1.3,5-7.55,9-13.52,8.72-.91,0-1.8-.25-2.7-.36a2.09,2.09,0,0,1-1.27-.86c-.34-1-1.63-1.9-.66-3.22,2.23-.43,4.24,1.07,6.58.58A11.59,11.59,0,0,0,495.89,538.09Z" transform="translate(-125.33 -80.07)"/><path class="cls-29" d="M495.89,538.09c-.68,5.76-7.55,9.94-13.05,7.93l-2.51-.93c-.21-.13-.29-.27-.26-.44s.07-.27.13-.27l3.46-1.19c3.69.63,6.49-.94,8.87-3.57A7.86,7.86,0,0,1,495.89,538.09Z" transform="translate(-125.33 -80.07)"/><path class="cls-27" d="M348.72,554.65l.3-1.38c-.47-.9,0-1.58.53-2.23,2.15-1.25,3.86-3,5.79-4.57,3.78.62,4,1.06,1.73,4C355,553.1,352.34,554.91,348.72,554.65Z" transform="translate(-125.33 -80.07)"/><path class="cls-27" d="M321.88,188.9l-.6-1.45c3-.8,9,1.45,10.31,4.07,1,2-.66,2.47-2.15,2.83-1.92-.72-3.15-2.8-5.45-2.78a3.54,3.54,0,0,1-.84-.38C322.55,190.52,321.62,190,321.88,188.9Z" transform="translate(-125.33 -80.07)"/><path class="cls-30" d="M351.26,545.18l.75-.11c1,1.69.2,2.9-1,4-5.44,2.21-10.47.11-12.36-5.14.09-1.59.42-3,2.43-3.06l-.07.22C344.5,546.41,344.81,546.53,351.26,545.18Z" transform="translate(-125.33 -80.07)"/><path class="cls-31" d="M351.26,545.18c-5,3.2-9.64,1.36-10.26-4.07A56.64,56.64,0,0,1,351.26,545.18Z" transform="translate(-125.33 -80.07)"/><path class="cls-32" d="M336.27,547.81l-1.4,1.23a38.11,38.11,0,0,1-2.43-5.78c-.46-1.88.07-3.94-.68-6.2,1.32.26,2.37.3,3.14,1.22a14.9,14.9,0,0,1,2,8.61A1.91,1.91,0,0,1,336.27,547.81Z" transform="translate(-125.33 -80.07)"/><path class="cls-33" d="M502.75,545.79a2.1,2.1,0,0,0-.5-.09,3,3,0,0,1-2.11-2.64c.28-2.35.62-4.7-.79-6.85,1.11-.76,2.44-1.77,3.61-1a4.17,4.17,0,0,1,1.49,4.24C504,541.61,504.47,544,502.75,545.79Z" transform="translate(-125.33 -80.07)"/><path class="cls-34" d="M394.76,497.86c-.41,4.47-4.89,7.75-10.48,7.28Z" transform="translate(-125.33 -80.07)"/><path class="cls-35" d="M585.92,465.44c-1.35-.39-2.37-1.58-3.9-1.51-1.71-.16-4.59.6-2.15-2.78,3.44,1.19,6.66.15,9.87-1a1.81,1.81,0,0,1,1.73.8l.68.22C590.61,463.4,587.38,463.12,585.92,465.44Z" transform="translate(-125.33 -80.07)"/><path class="cls-36" d="M250.73,478.8l1.64-1.86a2,2,0,0,1,.78-.66c2-.16,3.9-1.36,6-.79,1.64,1.15,2,1.75-.31,2.87A9.76,9.76,0,0,1,250.73,478.8Z" transform="translate(-125.33 -80.07)"/><path class="cls-37" d="M495.94,190.94c-1.56.92-2.85.27-4.09-.68a3.44,3.44,0,0,0,3.18-1.48,16,16,0,0,1,7.27-4.59c-.23.66-.46,1.32-.68,2a1.71,1.71,0,0,1-.75,1.65,10,10,0,0,0-3,2A3.7,3.7,0,0,1,495.94,190.94Z" transform="translate(-125.33 -80.07)"/><path class="cls-38" d="M499.35,536.21c3.56,1.68,1.68,4.43,1.35,6.87-.68.3-1.14-.07-1.59-.5-.57-.71-.6-1.66-1.06-2.42l-1.47-2.48C497.22,536.65,498.51,536.86,499.35,536.21Z" transform="translate(-125.33 -80.07)"/><path class="cls-39" d="M481.67,547.8l.68.46a2.46,2.46,0,0,1,1.83,1.21,1.8,1.8,0,0,1,.21,1.75c-3.29-1-7-1.29-8.23-5.44l2.07-.66C479.73,545.56,480.51,546.93,481.67,547.8Z" transform="translate(-125.33 -80.07)"/><path class="cls-40" d="M492.53,539.62c-1.79,4-5.71,5.55-8.87,3.57Z" transform="translate(-125.33 -80.07)"/><path class="cls-41" d="M336.29,547.17q-.69-4.45-1.39-8.89l2.73,1.35c1.09,1.14,1,2.6,1,4C338.87,545.48,338.25,546.78,336.29,547.17Z" transform="translate(-125.33 -80.07)"/><path class="cls-42" d="M350.85,548.58c.67-1.08,1.4-2.13,1.16-3.51l3.33,1.4c-.89,2.55-2.89,3.87-5.27,4.78C349.38,550.08,350,549.29,350.85,548.58Z" transform="translate(-125.33 -80.07)"/><path class="cls-43" d="M323.9,191c2.82-.48,4.18,1.45,5.54,3.37-.93.38-1.51,1.44-2.67,1.38-.48-.68-1-1.37-1.45-2C324.59,192.92,323.06,192.57,323.9,191Z" transform="translate(-125.33 -80.07)"/><path class="cls-44" d="M259.16,475.49a11.8,11.8,0,0,1-6.14,1.36c-.41-1.41.84-1.73,1.56-2.4a15.81,15.81,0,0,0,2.51-1.7c0-.22,0-.45.05-.67C258.3,472.93,258.44,474.38,259.16,475.49Z" transform="translate(-125.33 -80.07)"/><path class="cls-45" d="M338.43,543.94a7.11,7.11,0,0,1-.8-4.31,8.46,8.46,0,0,1,3.44,1.26,5.57,5.57,0,0,0-2,2.85A.54.54,0,0,1,338.43,543.94Z" transform="translate(-125.33 -80.07)"/><path class="cls-46" d="M481.67,547.8c-1.76-.11-2.59-1.4-3.44-2.68l2-.74c0,.24.08.47.13.71C480.44,546.16,481.79,546.61,481.67,547.8Z" transform="translate(-125.33 -80.07)"/><path class="cls-7" d="M579.87,460.48a5.75,5.75,0,0,0-.92-3.22q-10.22-20.77-20.43-41.56c-1.79-3.67-3.46-7.39-5.23-11.07-.53-1.11-.86-2.39-2.2-2.89,3.19-8.95-.66-15.7-6.76-21.76a200.08,200.08,0,0,0-9-19.44c-10.09-20.21-19.77-40.62-29.91-60.8-2.64-5.26-5.22-10.56-7.47-16a46,46,0,0,1,10.18-1.38c3.18-1.14,4.55.88,5.73,3.27,4.74,9.58,9.28,19.25,14,28.82,13.61,27.38,27,54.87,40.42,82.34,6.89,14.09,14.19,28,20.59,42.3a10.9,10.9,0,0,1,1.09,2.86c-.36,3.24-2.15,5.94-3.32,8.88-.9,1.65-1.82,3.29-2.82,4.88-.46.77-.92,1.55-1.43,2.3a17.49,17.49,0,0,1-1.75,2.61A.67.67,0,0,1,579.87,460.48Z" transform="translate(-125.33 -80.07)"/><path class="cls-6" d="M487.06,329.46c1.05-1.15.67-2.57.68-3.89q.09-18.51.13-37c1.7-.13,1.91,1.32,2.44,2.37,10.74,21.25,20.84,42.8,31.63,64,1.69,3.34,3,6.84,4.65,10.21.53,1.09,1.63,2.67-.74,3.27a252.75,252.75,0,0,0-38.12-11.71c-1.54-2-.89-4.27-1-6.45-.11-2.34.07-4.68-.17-7C487,338.65,486.39,334,487.06,329.46Z" transform="translate(-125.33 -80.07)"/><path class="cls-47" d="M525.85,368.41c1.24-.82.59-1.75.17-2.67-1.28-2.77-2.48-5.58-3.83-8.31q-15.78-32-31.66-63.91c-.84-1.68-.95-3.77-2.66-5-.75-3.08.66-4.17,3.6-4.2,2.16,0,4.32-.4,6.49-.61,3,2.83,3.86,6.84,5.78,10.27,1.21,2.16,2,4.55,3.12,6.79,9.9,20,19.85,40.08,29.7,60.15,2.75,5.6,5.23,11.32,7.83,17,.31.69,1,1.4-.06,2.06A101.92,101.92,0,0,0,525.85,368.41Z" transform="translate(-125.33 -80.07)"/><path class="cls-8" d="M341,336.84,351.33,324l-17.59-7.27c5.67-2.2,10.8-4.24,16.14-5.72.78-.55,1.36-.27,1.84.45,1,3.2.24,6.54.92,9.8a25.36,25.36,0,0,0,49.57.55c1.61-7.1.16-13.52-3.6-19.57-.71-1.15-1.73-2.13-1.88-3.58a1.09,1.09,0,0,1,.93-1.13c5.76-1.17,11.52-2.37,18.55-3.15L404,309.47l17.86,6.72-17.87,7.54L416.13,339c-6.09-1.08-11.38-1.82-16.56-3-2.71-.61-2.84.38-2.48,2.47.65,3.79,1.22,7.6,1.83,11.41l-5.27.06c-2.08-.66-3.66-2.1-5.34-3.4-3.21-2.48-3.25-2.46-4.62,1.24a5.54,5.54,0,0,1-1.73,2.82l-7.92.65c-2.35-1.71-2.05-4.9-3.86-7-4.29,2.37-7.15,6.65-11.77,8.47a4.07,4.07,0,0,1-2.84.64c.88-5,1.65-10.05,2.71-15,.44-2.07-.21-2.29-1.95-2.07-4.38.55-8.76,1-13.15,1.5C342.25,337.91,341.1,338.66,341,336.84Z" transform="translate(-125.33 -80.07)"/><path class="cls-48" d="M524.32,400.09a48,48,0,0,0-5.71,0c-2.9.39-3.63-.75-3.55-3.55.07-2.31.5-3.22,3-3a98.65,98.65,0,0,0,9.88.13c1.83,0,2.62.5,2.75,2.46A14.27,14.27,0,0,1,523.74,410a14.73,14.73,0,0,1-15.54.46,15.43,15.43,0,0,1-6-21.17c3.87-7,13.89-9.65,21.11-5.36,1,.57,3.58.94,2.1,2.78-1.09,1.34-2,4.54-5.17,2.45-3.38-2.22-6.68-1.93-10.1.42-3.63,2.48-3.95,6.05-3.46,9.65.45,3.28,3.21,5.52,6.07,6.32,3.33.93,7.08.83,9.55-2.6Z" transform="translate(-125.33 -80.07)"/><path class="cls-48" d="M411.87,412.37a15.36,15.36,0,0,1-15.44-15.27,15.46,15.46,0,1,1,30.92.08A15.27,15.27,0,0,1,411.87,412.37Z" transform="translate(-125.33 -80.07)"/><path class="cls-1" d="M467.39,381.51,489,399.44c0-5.36.11-10.06-.05-14.76-.07-2.15,1.12-2.31,2.5-1.94s4.08-1.55,4.12,1.67c.11,9.18,0,18.35,0,28.32l-22-18.08a87.57,87.57,0,0,0-.41,14.47c.12,2.65-1.25,2.54-3.1,2.62-2,.09-2.75-.46-2.72-2.64C467.47,400.16,467.39,391.22,467.39,381.51Z" transform="translate(-125.33 -80.07)"/><path class="cls-1" d="M320.65,381.12l13.24,21.35L348,380c1.17,7.72,2.22,14.64,3.26,21.56.36,2.35.79,4.71,1,7.08.09,1.09,1.63,2.73-.69,3.28-2.51.59-2.65-1.27-2.92-3q-1.08-7.06-2.24-14.12c-.16-1-.43-1.94-.77-3.44l-11.39,18.82-12-19c-1,6.32-1.87,11.95-2.67,17.6-.26,1.92-.44,3.75-3.09,3.11s-.85-2.34-.68-3.45c1.36-8.51,2.84-17,4.3-25.51A14.32,14.32,0,0,1,320.65,381.12Z" transform="translate(-125.33 -80.07)"/><path class="cls-48" d="M487.06,329.46a28.56,28.56,0,0,1,0,13.66.91.91,0,0,1-.3,1.19c-5.08,3.35-9.83,7.24-15.56,9.53l-17.48-2.06c5.44-4.49,11.58-8,17.37-11.94C476.34,336.26,481.73,332.91,487.06,329.46Z" transform="translate(-125.33 -80.07)"/><path class="cls-16" d="M412.71,367.08c15.22,0,30.44,0,45.66,0,1,0,2.68-.93,2.8,1.31.13,2.44-1.68,1.65-2.83,1.65q-45.66.06-91.33,0c-1.16,0-3,.73-2.79-1.7.15-2.22,1.84-1.27,2.83-1.27C382.27,367.06,397.49,367.08,412.71,367.08Z" transform="translate(-125.33 -80.07)"/><path class="cls-16" d="M413,419.62c15.1,0,30.21,0,45.32,0,1.11,0,3-.87,2.85,1.61-.1,2.19-1.76,1.35-2.78,1.36q-45.66.06-91.32,0c-1.14,0-3,.82-2.86-1.63.1-2.24,1.79-1.33,2.78-1.33C382.33,419.6,397.66,419.62,413,419.62Z" transform="translate(-125.33 -80.07)"/><path class="cls-1" d="M364.94,382.84c6.93-.41,6.92-.41,9.72,5.53,1.44,3.06,2.92,6.12,4.38,9.17,0,.08.19.12.57.36,1.8-3.45,3.58-6.88,5.37-10.3,2.79-5.32,2.79-5.31,9.24-4.65-4.8,9.82-9.55,19.55-14.58,29.86Z" transform="translate(-125.33 -80.07)"/><path class="cls-49" d="M437.59,399.52c0-2.95-.15-5.92.05-8.86.15-2.19-.62-2.88-2.67-2.52a11.94,11.94,0,0,1-1.7.11c-3.19.15-4.4-1.59-3.42-4.67.38-1.17,1.18-.88,1.89-.88,6.14,0,12.28.07,18.42-.06,2.13-.05,2.09,1.08,2,2.54s.42,2.85-2,3c-6.2.45-6.19.58-6.19,6.79,0,4.77-.14,9.55.06,14.32.1,2.49-1.23,2.49-2.95,2.38-1.56-.1-3.51.66-3.31-2.3.22-3.28.05-6.58.05-9.88Z" transform="translate(-125.33 -80.07)"/><path class="cls-49" d="M461.82,397.12c0,4.09-.16,8.18.06,12.25.14,2.55-1.26,2.38-2.92,2.34s-3.3.4-3.24-2.44c.2-8.17.16-16.34,0-24.51-.05-3.14,2.09-1.84,3.49-2.06,1.6-.25,2.76-.12,2.64,2.16C461.68,388.94,461.82,393,461.82,397.12Z" transform="translate(-125.33 -80.07)"/><path class="cls-19" d="M471.21,353.84l15.86-10.72c1.46,3.08.37,6.34.66,9.51.12,1.35,0,2.71,0,4.07Z" transform="translate(-125.33 -80.07)"/><path class="cls-48" d="M303.63,397.34c0,4.19,0,8.38,0,12.57,0,1.32-.22,2-1.83,2.06s-1.84-.73-1.84-2.06c0-8.48.06-17,0-25.46,0-1.62.69-1.78,2-1.81s1.7.55,1.68,1.8C303.59,388.74,303.63,393,303.63,397.34Z" transform="translate(-125.33 -80.07)"/><path class="cls-50" d="M358.41,352.66l12.31-10.36c1.22,3.25,2.27,6.07,3.33,8.9C368.83,351.66,363.69,352.86,358.41,352.66Z" transform="translate(-125.33 -80.07)"/><path class="cls-51" d="M382,350.55c2.39-8.35,2.39-8.36,8.92-3,.94.77,1.85,1.58,2.77,2.38Z" transform="translate(-125.33 -80.07)"/><path class="cls-52" d="M312.37,386.16a12.26,12.26,0,0,1-.24,2.39c-.29,1-.13,2.69-1.8,2.27s-.2-1.62-.22-2.47c0-.54.12-1.5-.06-1.56-2-.68-1.72-2.31-1.28-3.63.32-1,1.69-.65,2.45-.44C313.15,383.27,311.94,385,312.37,386.16Z" transform="translate(-125.33 -80.07)"/><path class="cls-37" d="M589.43,442.08q-18.31-37.32-36.62-74.62-16.87-34.4-33.71-68.83-3.23-6.57-6.26-13.23c-1-2.08-2.29-3.34-4.7-3a102.67,102.67,0,0,1,13.5-2.1c2.17-.86,3.11.5,3.93,2.14,2.33,4.67,4.78,9.29,7,14,7.68,16.58,16,32.85,24.05,49.26,8.68,17.73,17.28,35.51,26.09,53.19,4.3,8.63,8.3,17.41,12.92,25.88a5.84,5.84,0,0,1,.54,2c-1,5.19-3.15,10-5.33,14.71A1.17,1.17,0,0,1,589.43,442.08Z" transform="translate(-125.33 -80.07)"/><path class="cls-16" d="M595.6,426.36c-12.24-22.48-22.63-45.88-34.06-68.77-9.33-18.67-18.62-37.36-27.68-56.17-3-6.23-6.07-12.42-9.06-18.66-.66-1.38-1.29-2.69-3.16-2.51a21,21,0,0,1,7.05-1.29,8.33,8.33,0,0,1,1.44,2.3c10,19.52,19.38,39.33,29.09,59,12,24.34,23.8,48.8,35.88,73.12,1,2.11,2.85,3.86,3.1,6.36C597.3,421.94,598.26,424.86,595.6,426.36Z" transform="translate(-125.33 -80.07)"/><path class="cls-53" d="M546.57,287.2c1.45-1.23,2.54-2.91,4.47-3.54,1.76-.39,2,1.06,2.56,2.12,11,21.92,21.69,44,32.51,66.07,5.42,11,10.9,22,16.28,33a19.61,19.61,0,0,1,2.24,6.4,16.33,16.33,0,0,1-1.6,8.56c-1.91.6-2.35-1-2.91-2.12-4.2-8.31-8.48-16.58-12.44-25-1.06-2.26-2-4.57-3.16-6.79-10.22-20-19.71-40.4-29.84-60.46-2.56-5.06-4.83-10.27-7.37-15.35A4.33,4.33,0,0,1,546.57,287.2Z" transform="translate(-125.33 -80.07)"/><path class="cls-54" d="M552.65,282.41a16.35,16.35,0,0,1,5.34-3.62c1.26.77,1.63,2.15,2.22,3.35C574,310,587.5,338,601.3,365.84c2.07,4.17,5.17,8.14,4.77,13.27-.3,2.34.68,4.85-.91,7-2.48.81-2.79-1.33-3.52-2.71-4.78-9-9-18.35-13.55-27.5-8.66-17.36-17-34.89-25.68-52.25-2.89-5.78-5.59-11.67-8.49-17.45C553.32,285,552.52,283.86,552.65,282.41Z" transform="translate(-125.33 -80.07)"/><path class="cls-55" d="M546.57,287.2c3.47,5.86,6,12.15,9,18.24C566,326.71,576.75,347.85,587,369.2c4.42,9.19,9,18.28,13.49,27.46.53,1.09.83,2.38,2,3.11,1.37,2.7.35,5.08-1,7.41-2.08.61-2.5-1.15-3.1-2.36-16.7-33.71-33.08-67.59-49.76-101.31-3.83-7.74-7.7-15.46-11.27-23.33-.37-.82-.94-1.59-.48-2.56a1.45,1.45,0,0,1,2.06.56c1.59,2.59,3.6,5.05,4.55,7.87C544.28,288.38,545.11,288,546.57,287.2Z" transform="translate(-125.33 -80.07)"/><path class="cls-56" d="M605.17,378.71c.38-4.88-2.77-8.54-4.67-12.5-10.12-21-20.64-41.9-30.92-62.86-4-8.13-7.74-16.37-11.59-24.56,1.69-1.09,3.3-2.53,5.5-1.1a8.54,8.54,0,0,1,2.72,3.43c13.48,26.81,26.38,53.92,39.71,80.81a7.64,7.64,0,0,1,.68,1.93c.3,3.84.15,7.68.11,11.52C606.7,376.65,607,378.2,605.17,378.71Z" transform="translate(-125.33 -80.07)"/><path class="cls-17" d="M536.88,277.62q19.75,40.17,39.5,80.35c7.64,15.59,15.19,31.23,22.82,46.83a16.67,16.67,0,0,0,1.79,2.45c1.17,2.11.38,3.86-1,5.49-2.31.19-2.68-1.9-3.38-3.23-5.36-10.15-10.52-20.4-15.4-30.79-.53-1.13-1-2.3-1.54-3.41-10.2-19.94-19.76-40.18-29.68-60.25q-8-16.19-15.94-32.42c-.67-1.37-1.81-2.77-.56-4.42A6.19,6.19,0,0,1,536.88,277.62Z" transform="translate(-125.33 -80.07)"/><path class="cls-57" d="M551.2,265.28l-8.18,2c-2.72-3.93-4.61-8.33-6.56-12.64-3.18-7-6.67-13.91-10.18-20.77-5.37-10.49-10-21.35-15.55-31.76a3.1,3.1,0,0,1-.59-2.24,1.3,1.3,0,0,1,1.55-.27c4.65,2.64,9.45,5.08,13.2,9.06a14,14,0,0,0,1.65,4.77c8,15.88,15.42,32,23.53,47.79C550.71,262.44,551.77,263.65,551.2,265.28Z" transform="translate(-125.33 -80.07)"/><path class="cls-53" d="M510.27,199.82a116.74,116.74,0,0,1,8.1,15.67c3.72,8.28,8,16.25,12,24.41s7.92,16.3,11.89,24.44a5.41,5.41,0,0,1,.81,2.9l-5.48,1.39c-1.08-.39-1.4-1.38-1.87-2.3-10.72-21.27-20.84-42.84-31.58-64.1-1-2-2.92-4-1-6.54,1.32-.57,2.21.46,3.27.88C507.68,197.66,510,197.52,510.27,199.82Z" transform="translate(-125.33 -80.07)"/><path class="cls-16" d="M597.68,419.75c-11.86-21.83-22.06-44.49-33.23-66.67-11.64-23.11-22.84-46.44-34.22-69.68-.69-1.41-1.7-2.72-1.54-4.44a4.73,4.73,0,0,0,2.73-.57,6.1,6.1,0,0,1,1.32,2c10.72,21,20.87,42.35,31.33,63.52,10.95,22.18,21.62,44.51,32.7,66.63.87,1.72,1.9,3.35,2.7,5.12C599.65,417.33,599.63,419,597.68,419.75Z" transform="translate(-125.33 -80.07)"/><path class="cls-55" d="M503.44,196c-1.17,1.66.06,3.05.67,4.39,1.45,3.2,3.11,6.29,4.67,9.44q13.53,27.39,27,54.8c.65,1.32,1.15,2.7,1.72,4.05l-4.76,1.31c-3.87-9.71-8.91-18.86-13.51-28.22q-11.11-22.6-22.28-45.19a11.15,11.15,0,0,1-1.05-5.59,2.34,2.34,0,0,1,1.36-1.36c.8-.42,1.42-1.3,2.5-1a1,1,0,0,1,.48.71c0,1-.73,1.87-.62,2.9a2.16,2.16,0,0,0,1.32,1.44c.52.28,1,.55,1.53.85S503.49,195.24,503.44,196Z" transform="translate(-125.33 -80.07)"/><path class="cls-56" d="M551.2,265.28,524.89,212c-.48-1-1.33-1.95-.3-3.09,3.69.52,6.11,2.89,8.27,5.66,5.39,7.64,8.92,16.29,12.95,24.63,3.3,6.84,6.73,13.62,10,20.46.34.72.73,1.41,1,2.14,1.2,2.82,1,3.08-1.9,3.17a6.94,6.94,0,0,0-2.36.17Z" transform="translate(-125.33 -80.07)"/><path class="cls-58" d="M570.33,277a10,10,0,0,1,5.43.52c1.34.86,1.72,2.36,2.38,3.65,8.86,17.39,17.15,35.06,25.85,52.54.78,3.62,2,7.2,1,11-.91,1.25-1.58.32-2.15-.32a18.08,18.08,0,0,1-2.74-4.69c-9.24-19.53-18.94-38.83-28.43-58.23C571,280.05,569.8,278.76,570.33,277Z" transform="translate(-125.33 -80.07)"/><path class="cls-59" d="M605.68,362.9c-3.78-6.83-7-13.94-10.42-21-9.74-20.09-19.74-40.05-29.64-60.06-.69-1.41-1.42-2.8-2.13-4.19l4.09-.11c3.33,4.11,5,9.1,7.35,13.73.86,1.72,1.53,3.55,2.41,5.26,9.31,18.08,17.77,36.58,27,54.68a30.24,30.24,0,0,1,2.16,6.78C606.63,359.72,607.21,361.5,605.68,362.9Z" transform="translate(-125.33 -80.07)"/><path class="cls-17" d="M599,415.44c-1.28-.59-1.58-1.88-2.12-3q-15.51-31.31-31-62.63-16.7-33.93-33.29-67.93c-.54-1.11-1.26-2.18-1.13-3.51l2.05-.17c-.18,1.72.82,3,1.51,4.45,9.84,19.94,19.74,39.85,29.55,59.81,10.46,21.27,20.83,42.59,31.29,63.87,1.09,2.21,2.55,4.24,3.84,6.36C600.52,413.91,600.25,414.81,599,415.44Z" transform="translate(-125.33 -80.07)"/><path class="cls-60" d="M605.66,357.44c-.66-3.6-2.55-6.7-4.13-9.91-8.71-17.68-17.48-35.33-26.15-53-2.73-5.57-5.2-11.27-7.8-16.92a3.5,3.5,0,0,1,2.75-.58q14.31,28.94,28.6,57.87c1.73,3.51,2.63,7.47,5.71,10.23.1,0,.27,0,.3.12C606.52,349.21,607.13,353.27,605.66,357.44Z" transform="translate(-125.33 -80.07)"/><path class="cls-61" d="M397.66,297.54l-.72.55c-1.44.3-2.35-.71-3.31-1.44-6-4.55-12.57-6.72-20.11-5.48a3.21,3.21,0,0,1-2.31-.33.66.66,0,0,1-.15-.94l6.39-18.18c2.14,5.5,4.25,10.28,5.84,15.22,1.11,3.44,2.25,2.9,4.42,1,3.72-3.29,7.66-6.34,11.93-9.85-.86,5.69-1.66,10.72-2.34,15.76C397.13,295.05,396.23,296.44,397.66,297.54Z" transform="translate(-125.33 -80.07)"/><path class="cls-62" d="M552.65,282.41c3.53,6,6.28,12.3,9.27,18.53,4.46,9.33,9.26,18.49,13.81,27.77q13.28,27.06,26.44,54.18c.58,1.19.88,2.63,2.32,3.22,1.09,1.83,1.49,3.57-.61,5A51.38,51.38,0,0,0,602,386c-10.27-20.84-20.62-41.64-30.87-62.49-6.29-12.8-12.44-25.68-18.65-38.53a2.64,2.64,0,0,0-1.43-1.36A2.48,2.48,0,0,1,552.65,282.41Z" transform="translate(-125.33 -80.07)"/><path class="cls-63" d="M603.06,333.56q-13.27-26.91-26.54-53.81a18.28,18.28,0,0,1-.76-2.23l2-1.3c2.45,0,2.66,2.11,3.36,3.64,6.63,14.41,14.37,28.29,20.73,42.84C602.52,326.29,604.84,329.7,603.06,333.56Z" transform="translate(-125.33 -80.07)"/><path class="cls-59" d="M552.61,265.14c1.23-1.1,2.9,0,4.34-.91-.29-.71-.55-1.44-.89-2.14-6.95-14.15-13.95-28.27-20.8-42.47-.87-1.82-2.7-3-3-5.08,3.78.65,5.91,3.49,8.16,6.16,6.12,13.8,13.64,26.92,19.73,40.74.52,1.17,1.63,2.31.65,3.77Z" transform="translate(-125.33 -80.07)"/><path class="cls-58" d="M570.29,266.88l-7-1.47c.29-1.49-.67-2.59-1.24-3.79-4.94-10.33-10.54-20.34-15.11-30.85-.48-1.11-1.29-2.18-.74-3.53a1.23,1.23,0,0,1,1.8.16c3,2.93,6.49,5.5,8.65,9.26,2.07,6,5.43,11.37,8.12,17.07,1.54,3.26,3.25,6.44,4.82,9.69C570.12,264.48,571,265.54,570.29,266.88Z" transform="translate(-125.33 -80.07)"/><path class="cls-64" d="M546.52,226.88c.53,2.92,2,5.51,3.23,8.11,4.51,9.24,9.18,18.41,13.7,27.65.35.73,2.41,2-.14,2.77l-2.55-.2c-4.47-10.91-10.1-21.26-15.28-31.83-2-4.16-4.31-8.22-5.78-12.64C543.37,221.23,545.09,223.9,546.52,226.88Z" transform="translate(-125.33 -80.07)"/><path class="cls-65" d="M601,322.64c-2.17-4.6-4.32-9.2-6.52-13.79-4.8-10-10.28-19.76-14.66-30-.44-1-.81-2.17-2-2.63l1.51-2c1.58-1.75,2.09.05,2.58.92,1.73,3,3.15,6.27,4.79,9.36,3,5.69,5.41,11.69,8.74,17.21,2.92,5.51,4.4,11.49,5.84,17.49C601.52,320.3,602.08,321.56,601,322.64Z" transform="translate(-125.33 -80.07)"/><path class="cls-66" d="M351.3,311.76a1.53,1.53,0,0,0-1.42-.74c1.51-1.07.37-1.91-.26-2.76l-9.89-13.35,19.12,2.48c0,.16.07.32.11.48-2.51,4.41-5.53,8.56-6.78,13.6C352.11,311.77,351.65,311.84,351.3,311.76Z" transform="translate(-125.33 -80.07)"/><path class="cls-67" d="M371.06,289.9a1.34,1.34,0,0,1,0,.49,1.23,1.23,0,0,1-.67,1.11c-3.88,1.41-7.21,3.79-10.67,5.95a1,1,0,0,1-1-.08l.09,0c-1.17-6.38-2.33-12.77-3.65-20,4.78,4,8.89,7.5,13,10.92C369.06,289,369.69,290.16,371.06,289.9Z" transform="translate(-125.33 -80.07)"/><path class="cls-63" d="M570.29,266.88q-6.54-13.23-13.09-26.44c-.6-1.21-1.38-2.36-1.2-3.82a1.54,1.54,0,0,1,1.81.54c2.58,3.19,5.74,6,7.57,9.73.09,2.12,1.15,3.86,2.15,5.66,2.2,4,4.2,8.06,6.1,12.19.56,1.24,1.47,3-1.39,2.68A2.51,2.51,0,0,1,570.29,266.88Z" transform="translate(-125.33 -80.07)"/><path class="cls-68" d="M594.85,301.49c-1.13-.05-1.47-.92-1.82-1.76-3.47-8.24-7.87-16-11.77-24.05-.35-.73-.35-2.29-2-1.5.34-2.12-1-3.37-2.33-4.65-.64-2.4-2-4.47-3-6.71-.53-1.2-1.32-2.42-.26-3.75,1.57-.06,2.07,1.26,2.69,2.25a200.3,200.3,0,0,1,18.2,36.33C595.05,298.85,595.87,300.14,594.85,301.49Z" transform="translate(-125.33 -80.07)"/><path class="cls-69" d="M573.71,259.25c.16,2.82,2.13,4.88,3,7.39.33.91,1.7,1.82.21,2.89l-4.72-2.11c1.71-.19,1.3-1.14.79-2.14-2.28-4.43-4.51-8.88-6.84-13.28-.84-1.58-2-3-1.36-5a.8.8,0,0,1,1.17.15,74.18,74.18,0,0,1,7.61,10.21A1.56,1.56,0,0,1,573.71,259.25Z" transform="translate(-125.33 -80.07)"/><path class="cls-70" d="M341,336.84c.48,1,1.49.59,2.23.87a13.14,13.14,0,0,1-1.92.56c-.39.06-1.12,0-1.18-.2C339.88,337.42,340.46,337.12,341,336.84Z" transform="translate(-125.33 -80.07)"/><path class="cls-71" d="M579.87,460.48h.68a27.67,27.67,0,0,0,6.52-1,4.1,4.1,0,0,1,1.9.21,2,2,0,0,1,1.14.84,12.78,12.78,0,0,1-8.31,2c-1-.08-1.81-.2-1.93-1.39Z" transform="translate(-125.33 -80.07)"/><path class="cls-72" d="M255,474.79l-2,2.06a3.51,3.51,0,0,1-.65.09,9.74,9.74,0,0,1-6.32-4.42,191.63,191.63,0,0,1-21.26-44.3,189.31,189.31,0,0,1-9.15-41.59,224.13,224.13,0,0,1-.26-38.69,191,191,0,0,1,9.76-47.67A196.75,196.75,0,0,1,250.52,250a199.92,199.92,0,0,1,27.24-31.59,221.65,221.65,0,0,1,34.63-26.09c2.88-1.78,6-3.29,9.49-3.46.35.79,1.54.93,1.52,2-2.25,1.89-5.3,1.43-7.82,2.88A199.33,199.33,0,0,0,247.94,259a193.64,193.64,0,0,0-21.62,46.47,213.19,213.19,0,0,0-7.58,35.36c-1.69,12.25-1.24,24.48-1.09,36.72.11,9.48,2,18.85,3.87,28.15A191.56,191.56,0,0,0,241.2,459.4c1.41,2.59,3,5.09,4.39,7.69A14.69,14.69,0,0,0,255,474.79Z" transform="translate(-125.33 -80.07)"/><path class="cls-73" d="M590.11,460.52l-1.36-.26c-.73-1-.09-1.75.49-2.42,5.66-6.52,7.89-14.72,11.19-22.41a143.48,143.48,0,0,0,6.77-21,193,193,0,0,0,5.27-29.78A222.51,222.51,0,0,0,613,352a200.71,200.71,0,0,0-29.73-92,206,206,0,0,0-22.55-29.38,197,197,0,0,0-45.69-36.77c-1.37-.81-2.81-1.49-4.19-2.27-3.26-1.84-6.62-2.93-10.37-1.64l-.44-.28-.07-.71c-.36-.71.31-1,.62-1.37l1-1.35c6.95-.83,12.15,3.35,17.44,6.62,15.09,9.31,29.16,20,41.34,33A204.84,204.84,0,0,1,600,285.54a198.15,198.15,0,0,1,14.55,51.78,217,217,0,0,1,1,44.44,195.08,195.08,0,0,1-9.21,46.08A149.88,149.88,0,0,1,591.47,461Z" transform="translate(-125.33 -80.07)"/><path class="cls-74" d="M255,474.79c-4.4.58-6.8-2.44-8.72-5.45a195.77,195.77,0,0,1-27.88-77.26A210.39,210.39,0,0,1,218,341.3a191.49,191.49,0,0,1,7.23-35.05,201.43,201.43,0,0,1,13.39-32.56,186.47,186.47,0,0,1,14.08-23.21,212.21,212.21,0,0,1,16.47-20.27,197,197,0,0,1,39.14-32.87c4.63-3,9.18-6.29,15-6.44a4.33,4.33,0,0,1,.5.08l1.42,2.7c-5.13-2.12-9.3.45-13.32,3-16.76,10.57-32,23-45,38a201.11,201.11,0,0,0-37.23,63,189.82,189.82,0,0,0-10,40.38,200.56,200.56,0,0,0,22,120.87A62.55,62.55,0,0,0,249,470.4c2.2,2.58,4.82,3.66,8.13,2.35C256.84,473.9,255.85,474.27,255,474.79Z" transform="translate(-125.33 -80.07)"/><path class="cls-75" d="M445,170.59c-1.73-.1-3.67.07-2.86-2.25.57-1.64-1.16-4.52,2-4.83s5.53,1.8,5.36,4C449.27,170.55,447,170.63,445,170.59Z" transform="translate(-125.33 -80.07)"/><path class="cls-76" d="M443.88,155.25c.18-.27-1.19-2.66,1.49-2.57,1.77.06,3.49.64,3.47,2.87s-1.59,2.71-3.49,2.77C443.76,158.37,442.9,157.93,443.88,155.25Z" transform="translate(-125.33 -80.07)"/><path class="cls-77" d="M488,172.68c-.24.14-.34.24-.42.23-7.49-1.26-7.49-1.26-2.95-7,.56-.7,1.15-1.37,2.06-2.45.35,1.8.7,3.24.9,4.7S487.88,171.21,488,172.68Z" transform="translate(-125.33 -80.07)"/><path class="cls-76" d="M367,156.79l5.09,8.45c-.36.23-.52.41-.7.43-2.11.2-5.6,1.72-6,.57C364.41,163.46,366.27,160.46,367,156.79Z" transform="translate(-125.33 -80.07)"/><path class="cls-78" d="M397.17,578.44c-1.22-.19-3.09.06-2.33-2.11.46-1.31-1.24-3.91,1.74-3.8,2,.08,4.3.75,4.31,3.36C400.9,578.06,399,578.4,397.17,578.44Z" transform="translate(-125.33 -80.07)"/><path class="cls-79" d="M396,566.34c.77-.58-.85-2.94,1.61-2.66,1.41.16,2.69.91,2.48,2.63-.16,1.43-1.22,2.06-2.64,2.06C396.2,568.38,395.42,568,396,566.34Z" transform="translate(-125.33 -80.07)"/><path class="cls-80" d="M433.46,567.86c-.61-2.68.42-3.11,2.05-3s3.06.71,2.9,2.5c-.17,2-2,2.08-3.58,2.24C432.57,569.83,433.55,568.07,433.46,567.86Z" transform="translate(-125.33 -80.07)"/><path class="cls-81" d="M484.39,551.22c-.2-.46-.4-.91-.59-1.37,2.46-1,5.19-.84,7.69-1.93,3.15-1.37,5.49-3.7,8-5.83l1.19,1,1.55,2.62c-4.09,3.09-8.36,5.82-13.46,7-.7.16-1.27.88-1.9,1.34Z" transform="translate(-125.33 -80.07)"/><path class="cls-82" d="M338.43,543.94a3.11,3.11,0,0,0,.61-.2c2.58,4.88,6.2,6.37,11.81,4.84l-.78,2.67-1.05,2a18.9,18.9,0,0,1-12.75-5.46c0-.21,0-.43,0-.64A9,9,0,0,0,338.43,543.94Z" transform="translate(-125.33 -80.07)"/><path class="cls-83" d="M499.51,542.09c-2.64,4.95-9.83,8.5-15.71,7.76l-1.45-1.59A16.37,16.37,0,0,0,493.44,546c2.29-1.36,4.12-3.06,4.61-5.83A3.24,3.24,0,0,1,499.51,542.09Z" transform="translate(-125.33 -80.07)"/><path class="cls-17" d="M500.6,187.52c.15.62-.23,1-.62,1.37l-2.68.69A3.24,3.24,0,0,1,500.6,187.52Z" transform="translate(-125.33 -80.07)"/><path class="cls-84" d="M573.71,259.25A75.21,75.21,0,0,0,564.83,247,66.84,66.84,0,0,0,556,236.62a74,74,0,0,0-9.48-9.74,39.76,39.76,0,0,0-6.82-6.14,43.17,43.17,0,0,0-7.48-6.2,44.2,44.2,0,0,0-7.63-5.63,86.2,86.2,0,0,0-14.32-9.09l-4.09-2.75c1.25-2.61,2.9-.76,4.08-.13A156,156,0,0,1,527,207.52a199.66,199.66,0,0,1,43.81,42.61c3.13,5.12,6.84,9.85,9.9,15,2.59,4.39,4.7,9.05,7.55,13.29A216.82,216.82,0,0,1,602.81,318c5.57,22.15,6.6,44.65,4.53,67.26a177.06,177.06,0,0,1-14.4,55.42c-1.41,3.21-2.28,6.7-4.51,9.49-.53.67-1.25,2.9-2.54.47l3.54-8.53a77.79,77.79,0,0,0,6.17-15.72c.69-2.2,1.39-4.4,2.08-6.61a9.38,9.38,0,0,0,1.27-4.31,4.26,4.26,0,0,0,.71-2.73,14.75,14.75,0,0,0,1.33-5.46,24.27,24.27,0,0,0,1.49-7.48,29.26,29.26,0,0,0,1.4-8.65c.78-1.6.57-3.32.61-5,.85-2.41.65-4.92.68-7.4,1-5.24.57-10.53.51-15.81l0-5.46a76.19,76.19,0,0,0-1-12.34,46.8,46.8,0,0,0-1.58-11.54A46.13,46.13,0,0,0,601,322.64c-1.41-6.56-2.5-13.21-5.88-19.18a5.64,5.64,0,0,1-.25-2c-3.66-12-9.35-23-15.58-33.76A49,49,0,0,0,573.71,259.25Z" transform="translate(-125.33 -80.07)"/><path class="cls-85" d="M585.89,450.61c1,1.21,1.17,0,1.58-.54,3.19-4.12,4.51-9.17,6.4-13.85a177.46,177.46,0,0,0,11.82-44.42,213.77,213.77,0,0,0,.27-50.75,185.22,185.22,0,0,0-13-49.69c-1.79-4.39-4.24-8.49-5.57-13.08,1.87-.3,2.14,1.32,2.78,2.41,1,1.64,1.59,3.5,3,4.88,2.46,2.85,3.17,6.53,4.46,9.88a190.59,190.59,0,0,1,10.6,41.1,203.44,203.44,0,0,1,1.34,44.8,186.45,186.45,0,0,1-9.79,47.2,164.49,164.49,0,0,1-9.18,22c-1.21,2.32-2.51,4.67-5.18,5.62-.65.23-2,1.41-2.17-.58Q584.56,453.1,585.89,450.61Z" transform="translate(-125.33 -80.07)"/><path class="cls-86" d="M583.24,455.59c2.39.54,3.69-1,4.82-2.66,3.74-5.49,5.8-11.77,8.29-17.84a179.92,179.92,0,0,0,10.59-38.51,200.21,200.21,0,0,0,2.2-42.15,192.4,192.4,0,0,0-7-42.92c-2.17-7.91-5.35-15.55-8.15-23.28a10.81,10.81,0,0,0-1.8-2.44c-3.27-7.66-8-14.51-12-21.82-.67-1.25-1.81-2.37-1.23-4a1.27,1.27,0,0,1,.87-.47c1.17.06,1.75.91,2.31,1.77a137.93,137.93,0,0,1,7.25,12.6,38.58,38.58,0,0,0,3.82,7.66c.49,1.13.87,2.31,1.42,3.42a16.07,16.07,0,0,0,1.37,2.87c.38.85.63,1.75.94,2.62a16.14,16.14,0,0,0,1.36,3c1.75,4.35,3.31,8.76,4.62,13.26a15.89,15.89,0,0,0,1.31,4.2,6.2,6.2,0,0,1,.27,1,19.67,19.67,0,0,0,1.25,4.82c.76,3,1.5,6,2.09,9.06a25.28,25.28,0,0,0,.53,3.47,6.45,6.45,0,0,1,.21,1,15.77,15.77,0,0,0,.5,3.34c.28,1.25.42,2.53.58,3.8a35.45,35.45,0,0,0,.83,5.22,8.5,8.5,0,0,1,.25,1.51,26.28,26.28,0,0,0,.39,5.31,7.54,7.54,0,0,1,.08,1.16c.67,8.75.16,17.51.32,26.26a14.47,14.47,0,0,1-.24,2.94c-.66,1.8-.43,3.69-.49,5.54a10.18,10.18,0,0,1-.26,2.2,38.8,38.8,0,0,0-1.13,8.51,8,8,0,0,1-.25,1.55,32.64,32.64,0,0,0-1.22,5.35,8,8,0,0,1-.21,1,14.46,14.46,0,0,0-.53,3.34,8,8,0,0,1-.22,1A14.26,14.26,0,0,0,605.9,413c-1.7,6-3.2,12.08-5.49,17.91a18.1,18.1,0,0,0-1.55,3.52c-.26.73-.5,1.47-.77,2.19a25.59,25.59,0,0,0-1.32,3.37c-.26.72-.48,1.44-.8,2.14a15.08,15.08,0,0,0-1.36,2.94c-1.11,2.61-2.34,5.14-3.69,7.63a10.91,10.91,0,0,1-7.38,6,1.34,1.34,0,0,1-1.58-.95C582.28,457,582.43,456.08,583.24,455.59Z" transform="translate(-125.33 -80.07)"/><path class="cls-87" d="M582,457.73l1.33.65a6.17,6.17,0,0,1,3.27.3,1.54,1.54,0,0,1,.82,1.14c-2.17,1.3-4.39,2.06-6.83.65A3.78,3.78,0,0,1,582,457.73Z" transform="translate(-125.33 -80.07)"/><path class="cls-2" d="M358.76,297.37a40.13,40.13,0,0,1,12.3-7c5.66-.77,11.21-.78,16.62,1.54,3.49,1.5,6.3,3.92,9.26,6.16,2.68,3.93,5.36,7.82,6.25,12.66,2,10.72-1.23,19.66-9.78,26.23s-18.4,7.52-28.12,2.39-14.3-13.55-14.07-24.55c0-1,0-2,.08-3.06A35.25,35.25,0,0,1,358.76,297.37Z" transform="translate(-125.33 -80.07)"/><path d="M411.83,406a9,9,0,0,1-9-9.11,9.13,9.13,0,0,1,9.3-8.85,9,9,0,0,1,8.74,9A8.84,8.84,0,0,1,411.83,406Z" transform="translate(-125.33 -80.07)"/><path class="cls-85" d="M570.32,250.31c-2.15-1.39-3.5-3.54-5-5.49-8.42-10.9-18.31-20.29-28.95-29A193.35,193.35,0,0,0,511,198.27c-1.38-.81-2.72-2.75-4.79-1.2L503.44,196l-1.33-1c.34-2.53,2.27-2.12,3.86-1.89a15.28,15.28,0,0,1,5.33,2.14c17.75,10.31,33.9,22.61,47.62,38,3.84,4.31,8,8.33,10.84,13.42C569.83,247.85,571.31,248.9,570.32,250.31Z" transform="translate(-125.33 -80.07)"/><path class="cls-88" d="M586.67,459.18a6.22,6.22,0,0,1-3.38-.8c5.6-2.08,7.66-7.05,9.79-12a9.91,9.91,0,0,1,1.12-1.64c.53-.87.63-2,1.36-2.73,0-.75-.12-1.56.68-2.05.63-1.07.8-2.32,1.37-3.41,0-.75-.12-1.55.68-2,.63-1.06.8-2.32,1.37-3.41l5.46-18.42c.61-1.55.8-3.22,1.36-4.78v-.68c.69-1.05.15-2.34.68-3.41,0-.23,0-.46,0-.68.77-1.75.84-3.66,1.36-5.47v-1.36c.62-2.93.79-5.93,1.36-8.87v-2c1-1.73-.22-3.72.69-5.46v-2.72c.77-4.47.29-9,.31-13.46s.39-9.24-.32-13.84c0-.23,0-.45,0-.68-.91-1.73.26-3.73-.69-5.46v-1.36c-.78-1.51.09-3.27-.68-4.78a7,7,0,0,1-.68-4.09c-.54-1.08,0-2.37-.68-3.42,0-.22,0-.45,0-.68-.53-1.07,0-2.37-.67-3.41a52.75,52.75,0,0,1-2-9.55c-.56-1.56-.76-3.23-1.37-4.78V311c-.75-1.27-.8-2.77-1.37-4.1l-4.77-13.64c-.47-.9-.59-2-1.36-2.73a4.61,4.61,0,0,1-.69-2.73c-.73-.77-.83-1.86-1.36-2.73a4,4,0,0,1-1.37-3.41c-1.6-2.37-2.42-5.17-4.09-7.51-2.94-4.79-5.08-10.07-8.87-14.33-3.79-4-6.31-8.86-9.65-13.17a190.18,190.18,0,0,0-21.07-23.48,194.76,194.76,0,0,0-33.87-25.53,72.09,72.09,0,0,0-6.84-3.78c-2.68-1.2-5.22-1.36-7.72.37-.88-.46-2.45-.2-2-2a5.91,5.91,0,0,1,1.69-1.93c3.52-1.75,6.84-.89,10.07.83a189,189,0,0,1,33,22.63,199.84,199.84,0,0,1,40.83,47.44,192.15,192.15,0,0,1,21.94,49.94,197.48,197.48,0,0,1,7,66.19A195.18,195.18,0,0,1,594,450.79C592.39,454.15,591,458,586.67,459.18Z" transform="translate(-125.33 -80.07)"/><path class="cls-89" d="M500.72,194.27c1.44-2.92,3.95-2.19,6.16-1.55,4.95,1.43,9.1,4.55,13.37,7.26a192.55,192.55,0,0,1,42.08,35.93,168,168,0,0,1,17,22.39,9.09,9.09,0,0,1,.58,1.56h-.69c-1.74.33-2.21-1.11-3-2.14-2.6-3.48-4.67-7.32-7.25-10.82-1.4-3.4-4-6-6.37-8.62a194.37,194.37,0,0,0-37-33.1c-5.89-4-11.69-8.12-18.27-10.92-1.8-.77-3.69-1.36-5.17.68Z" transform="translate(-125.33 -80.07)"/><path class="cls-73" d="M500,190.94a2.29,2.29,0,0,1-1.34,1.35,4.91,4.91,0,0,1,1.35-2.69l.08.07A.88.88,0,0,1,500,190.94Z" transform="translate(-125.33 -80.07)"/><path class="cls-90" d="M500,190.94l.09-1.27c3-2.06,6-1.48,8.93,0a165.73,165.73,0,0,1,34.28,23.1c4.35,3.79,8.9,7.42,12.86,11.59a227.89,227.89,0,0,1,25.91,32.2,196.75,196.75,0,0,1,21.16,42.84,191.13,191.13,0,0,1,10,45.86,207.27,207.27,0,0,1-1.17,48.64,193,193,0,0,1-9.16,37.37c-3,8.37-6,16.82-10.76,24.45-1,1.63-3.07,2.44-3.43,4.54l-1.37-.44-.71-.64c6.1-4.26,7.89-11.26,10.61-17.48A176.45,176.45,0,0,0,608,408.5a204.69,204.69,0,0,0,3.39-66.33A194.33,194.33,0,0,0,589.6,272a189.71,189.71,0,0,0-23.46-34.45,205.78,205.78,0,0,0-28.48-27.6,169,169,0,0,0-28.35-18.61A11.44,11.44,0,0,0,500,190.94Z" transform="translate(-125.33 -80.07)"/><path class="cls-91" d="M569,246.9c3.53,2.72,5.23,6.84,7.83,10.28.74,1,1.22,2.13,2.4,2.68,1.76,4.55,4.81,8.4,6.93,12.75s5,8.32,6,13.18c-2.16-2.14-2.21-5.62-4.77-7.51-3.24-3.79-4.74-8.59-7.46-12.7-2.84-4.29-5.41-8.75-8.63-12.8a8.84,8.84,0,0,1-1-2.47C569.86,249.17,569.41,248,569,246.9Z" transform="translate(-125.33 -80.07)"/><path class="cls-92" d="M610.57,349.93c.2.27.55.54.56.81q0,12.84,0,25.67c0,.28-.36.55-.55.82Q610.58,363.58,610.57,349.93Z" transform="translate(-125.33 -80.07)"/><path class="cls-92" d="M588.74,274.19c2.27,2,3.12,4.79,4.09,7.51C590.57,279.69,589.72,276.91,588.74,274.19Z" transform="translate(-125.33 -80.07)"/><path class="cls-92" d="M609.89,387.46a21.63,21.63,0,0,1-1.36,8.87A22,22,0,0,1,609.89,387.46Z" transform="translate(-125.33 -80.07)"/><path class="cls-92" d="M608.53,397.69c.06,1.95,0,3.86-1.36,5.47A10.26,10.26,0,0,1,608.53,397.69Z" transform="translate(-125.33 -80.07)"/><path class="cls-92" d="M609.21,337.65c1.31,1.44.42,3.19.68,4.78C608.71,341,609.25,339.27,609.21,337.65Z" transform="translate(-125.33 -80.07)"/><path class="cls-92" d="M609.89,343.79c1.37,1.68.39,3.65.69,5.46C609.22,347.57,610.19,345.6,609.89,343.79Z" transform="translate(-125.33 -80.07)"/><path class="cls-92" d="M603.75,311.72a6.89,6.89,0,0,1,1.37,4.78A6.89,6.89,0,0,1,603.75,311.72Z" transform="translate(-125.33 -80.07)"/><path class="cls-92" d="M610.58,380c-.3,1.81.68,3.79-.69,5.46C610.19,383.6,609.22,381.63,610.58,380Z" transform="translate(-125.33 -80.07)"/><path class="cls-92" d="M606.48,407.93a6.85,6.85,0,0,1-1.36,4.78A6.93,6.93,0,0,1,606.48,407.93Z" transform="translate(-125.33 -80.07)"/><path class="cls-92" d="M602.38,306.94a6.4,6.4,0,0,1,1.37,4.1C602.43,310,602.33,308.48,602.38,306.94Z" transform="translate(-125.33 -80.07)"/><path class="cls-92" d="M607.16,403.84a3.45,3.45,0,0,1-.68,3.41C606.65,406.1,606,404.79,607.16,403.84Z" transform="translate(-125.33 -80.07)"/><path class="cls-92" d="M607.17,326.05a3.49,3.49,0,0,1,.68,3.41C606.71,328.51,607.33,327.2,607.17,326.05Z" transform="translate(-125.33 -80.07)"/><path class="cls-92" d="M599.66,431.13a3.92,3.92,0,0,1-1.37,3.41A4,4,0,0,1,599.66,431.13Z" transform="translate(-125.33 -80.07)"/><path class="cls-92" d="M607.85,330.14a3.52,3.52,0,0,1,.68,3.42C607.4,332.6,608,331.29,607.85,330.14Z" transform="translate(-125.33 -80.07)"/><path class="cls-92" d="M597.61,436.59a3.89,3.89,0,0,1-1.37,3.41A4,4,0,0,1,597.61,436.59Z" transform="translate(-125.33 -80.07)"/><path class="cls-92" d="M596.25,290.57c1.24.51,1.43,1.56,1.36,2.73A3.77,3.77,0,0,1,596.25,290.57Z" transform="translate(-125.33 -80.07)"/><path class="cls-92" d="M594.2,285.11a3.68,3.68,0,0,1,1.36,2.73C594.32,287.32,594.14,286.28,594.2,285.11Z" transform="translate(-125.33 -80.07)"/><path class="cls-92" d="M595.56,442.05a3.68,3.68,0,0,1-1.36,2.73C594.14,443.61,594.32,442.57,595.56,442.05Z" transform="translate(-125.33 -80.07)"/><path class="cls-8" d="M355.37,316.12a22.12,22.12,0,1,1,21.94,22.21A22,22,0,0,1,355.37,316.12Z" transform="translate(-125.33 -80.07)"/></svg>